<svg width="20" height="20" viewBox="0 0 20 20" fill="none" xmlns="http://www.w3.org/2000/svg">
<path d="M3.47461 9.69835V14.1846L9.99711 15.41V5.63293" stroke="#818181" stroke-width="0.5" stroke-linecap="round" stroke-linejoin="round"/>
<path d="M16.4842 9.81714V14.1063L9.99707 15.4101" stroke="#818181" stroke-width="0.5" stroke-linecap="round" stroke-linejoin="round"/>
<path d="M4.5434 12.7766L5.76882 12.907M11.9896 9.19788L17.5671 9.96622C17.6537 9.97822 17.7419 9.96687 17.8226 9.93332C17.9033 9.89978 17.9735 9.84527 18.0261 9.77544C18.0786 9.70561 18.1115 9.623 18.1213 9.53617C18.1312 9.44935 18.1177 9.36147 18.0821 9.28163L16.4842 5.68497L9.99673 4.58997L3.47507 5.73747L1.9209 9.07746C1.88484 9.1548 1.86961 9.24021 1.87669 9.32524C1.88378 9.41027 1.91295 9.49197 1.96132 9.56227C2.00968 9.63256 2.07556 9.68901 2.15244 9.72602C2.22932 9.76304 2.31454 9.77933 2.39965 9.7733L7.95715 9.38705C8.06784 9.3794 8.17437 9.34183 8.26537 9.27835C8.35637 9.21488 8.42842 9.12787 8.47382 9.02663L9.99673 5.6333L11.5188 8.85288C11.5624 8.94497 11.6282 9.02474 11.7103 9.08498C11.7925 9.14522 11.8887 9.18403 11.9896 9.19788Z" stroke="#818181" stroke-width="0.5" stroke-linecap="round" stroke-linejoin="round"/>
</svg>
