<svg width="170" height="34" viewBox="0 0 170 34" fill="none" xmlns="http://www.w3.org/2000/svg">
<path d="M128.164 31.875C127.94 31.8758 127.722 31.8061 127.54 31.6758L119 25.484L110.459 31.6758C110.277 31.8081 110.057 31.879 109.832 31.8782C109.606 31.8773 109.387 31.8049 109.206 31.6712C109.024 31.5375 108.89 31.3496 108.822 31.1346C108.754 30.9196 108.757 30.6886 108.829 30.4751L112.16 20.6092L103.527 14.689C103.34 14.5609 103.199 14.3764 103.124 14.1624C103.05 13.9484 103.046 13.7161 103.112 13.4995C103.179 13.2829 103.313 13.0933 103.496 12.9585C103.678 12.8236 103.898 12.7506 104.125 12.75H114.775L117.989 2.85877C118.058 2.64522 118.194 2.45909 118.375 2.32708C118.557 2.19507 118.775 2.12396 119 2.12396C119.224 2.12396 119.443 2.19507 119.625 2.32708C119.806 2.45909 119.941 2.64522 120.011 2.85877L123.225 12.7533H133.875C134.102 12.7532 134.323 12.8257 134.506 12.9603C134.688 13.0949 134.823 13.2845 134.89 13.5013C134.957 13.718 134.953 13.9506 134.879 14.1649C134.804 14.3793 134.663 14.5641 134.476 14.6924L125.84 20.6092L129.169 30.4725C129.223 30.6322 129.238 30.8024 129.213 30.9691C129.188 31.1358 129.124 31.2942 129.026 31.4312C128.928 31.5683 128.798 31.68 128.648 31.7571C128.499 31.8343 128.333 31.8747 128.164 31.875Z" fill="#25A870"/>
<path d="M162.164 31.875C161.94 31.8759 161.722 31.8061 161.54 31.6758L153 25.484L144.459 31.6758C144.277 31.8081 144.057 31.879 143.832 31.8782C143.606 31.8773 143.387 31.8049 143.206 31.6712C143.024 31.5375 142.89 31.3496 142.822 31.1346C142.754 30.9196 142.757 30.6886 142.829 30.4751L146.16 20.6092L137.527 14.689C137.34 14.561 137.199 14.3764 137.124 14.1624C137.05 13.9484 137.046 13.7161 137.112 13.4995C137.179 13.2829 137.313 13.0933 137.496 12.9585C137.678 12.8236 137.898 12.7506 138.125 12.75H148.775L151.989 2.85877C152.058 2.64522 152.194 2.45909 152.375 2.32708C152.557 2.19507 152.775 2.12396 153 2.12396C153.224 2.12396 153.443 2.19507 153.625 2.32708C153.806 2.45909 153.941 2.64522 154.011 2.85877L157.225 12.7533H167.875C168.102 12.7532 168.323 12.8257 168.506 12.9603C168.688 13.0949 168.823 13.2845 168.89 13.5013C168.957 13.718 168.953 13.9506 168.879 14.1649C168.804 14.3793 168.663 14.5641 168.476 14.6924L159.84 20.6092L163.169 30.4725C163.223 30.6322 163.238 30.8024 163.213 30.9691C163.188 31.1358 163.124 31.2942 163.026 31.4312C162.928 31.5683 162.798 31.68 162.648 31.7571C162.499 31.8343 162.333 31.8747 162.164 31.875Z" fill="#25A870"/>
<path d="M94.164 31.875C93.9403 31.8758 93.7221 31.8061 93.5404 31.6758L84.9999 25.484L76.4594 31.6758C76.2769 31.8081 76.0571 31.879 75.8317 31.8782C75.6063 31.8773 75.387 31.8049 75.2055 31.6712C75.024 31.5375 74.8897 31.3496 74.8221 31.1346C74.7544 30.9196 74.7569 30.6886 74.8291 30.4751L78.16 20.6092L69.5272 14.689C69.3402 14.5609 69.1991 14.3764 69.1245 14.1624C69.0498 13.9484 69.0456 13.7161 69.1123 13.4995C69.1791 13.2829 69.3134 13.0933 69.4955 12.9585C69.6777 12.8236 69.8982 12.7506 70.1249 12.75H80.7751L83.9892 2.85877C84.0584 2.64522 84.1935 2.45909 84.3751 2.32708C84.5567 2.19507 84.7754 2.12396 84.9999 2.12396C85.2244 2.12396 85.4431 2.19507 85.6247 2.32708C85.8063 2.45909 85.9414 2.64522 86.0106 2.85877L89.2247 12.7533H99.8749C100.102 12.7532 100.323 12.8257 100.506 12.9603C100.688 13.0949 100.823 13.2845 100.89 13.5013C100.957 13.718 100.953 13.9506 100.879 14.1649C100.804 14.3793 100.663 14.5641 100.476 14.6924L91.8397 20.6092L95.1687 30.4725C95.2226 30.6322 95.2378 30.8024 95.2129 30.9691C95.1881 31.1358 95.1239 31.2942 95.0258 31.4312C94.9276 31.5683 94.7983 31.68 94.6484 31.7571C94.4986 31.8343 94.3325 31.8747 94.164 31.875Z" fill="#25A870"/>
<path d="M60.164 31.875C59.9403 31.8758 59.7221 31.8061 59.5404 31.6758L50.9999 25.484L42.4594 31.6758C42.2769 31.8081 42.0571 31.879 41.8317 31.8782C41.6063 31.8773 41.387 31.8049 41.2055 31.6712C41.024 31.5375 40.8897 31.3496 40.8221 31.1346C40.7544 30.9196 40.7569 30.6886 40.8291 30.4751L44.16 20.6092L35.5272 14.689C35.3402 14.5609 35.1991 14.3764 35.1245 14.1624C35.0498 13.9484 35.0456 13.7161 35.1123 13.4995C35.1791 13.2829 35.3134 13.0933 35.4955 12.9585C35.6777 12.8236 35.8982 12.7506 36.1249 12.75H46.7751L49.9892 2.85877C50.0584 2.64522 50.1935 2.45909 50.3751 2.32708C50.5567 2.19507 50.7754 2.12396 50.9999 2.12396C51.2244 2.12396 51.4431 2.19507 51.6247 2.32708C51.8063 2.45909 51.9414 2.64522 52.0106 2.85877L55.2247 12.7533H65.8749C66.1018 12.7532 66.3228 12.8257 66.5056 12.9603C66.6883 13.0949 66.8231 13.2845 66.8903 13.5013C66.9575 13.718 66.9535 13.9506 66.8789 14.1649C66.8043 14.3793 66.6631 14.5641 66.4759 14.6924L57.8397 20.6092L61.1687 30.4725C61.2226 30.6322 61.2378 30.8024 61.2129 30.9691C61.1881 31.1358 61.1239 31.2942 61.0258 31.4312C60.9276 31.5683 60.7983 31.68 60.6484 31.7571C60.4986 31.8343 60.3325 31.8747 60.164 31.875Z" fill="#25A870"/>
<path d="M26.164 31.875C25.9403 31.8758 25.7221 31.8061 25.5404 31.6758L16.9999 25.484L8.45938 31.6758C8.27692 31.8081 8.0571 31.879 7.8317 31.8782C7.6063 31.8773 7.387 31.8049 7.2055 31.6712C7.02401 31.5375 6.88972 31.3496 6.82206 31.1346C6.7544 30.9196 6.75687 30.6886 6.82911 30.4751L10.16 20.6092L1.52724 14.689C1.34024 14.5609 1.19911 14.3764 1.12446 14.1624C1.04982 13.9484 1.04556 13.7161 1.11232 13.4995C1.17908 13.2829 1.31336 13.0933 1.49554 12.9585C1.67771 12.8236 1.89824 12.7506 2.12489 12.75H12.7751L15.9892 2.85877C16.0584 2.64522 16.1935 2.45909 16.3751 2.32708C16.5567 2.19507 16.7754 2.12396 16.9999 2.12396C17.2244 2.12396 17.4431 2.19507 17.6247 2.32708C17.8063 2.45909 17.9414 2.64522 18.0106 2.85877L21.2247 12.7533H31.8749C32.1018 12.7532 32.3228 12.8257 32.5056 12.9603C32.6883 13.0949 32.8231 13.2845 32.8903 13.5013C32.9575 13.718 32.9535 13.9506 32.8789 14.1649C32.8043 14.3793 32.6631 14.5641 32.4759 14.6924L23.8397 20.6092L27.1687 30.4725C27.2226 30.6322 27.2378 30.8024 27.2129 30.9691C27.1881 31.1358 27.1239 31.2942 27.0258 31.4312C26.9276 31.5683 26.7983 31.68 26.6484 31.7571C26.4986 31.8343 26.3325 31.8747 26.164 31.875Z" fill="#25A870"/>
</svg>
