<svg width="24" height="24" viewBox="0 0 24 24" fill="none" xmlns="http://www.w3.org/2000/svg">
<path d="M20.7491 12.0001L21.8531 10.0921C21.9858 9.8625 22.0219 9.58964 21.9535 9.33349C21.885 9.07733 21.7176 8.85884 21.4881 8.72606L19.5781 7.62206V5.42206C19.5781 5.15684 19.4728 4.90249 19.2852 4.71495C19.0977 4.52741 18.8433 4.42206 18.5781 4.42206H16.3791L15.2761 2.51306C15.1429 2.28397 14.9249 2.11656 14.6691 2.04706C14.5423 2.01267 14.4099 2.00381 14.2796 2.02097C14.1493 2.03814 14.0237 2.081 13.9101 2.14706L12.0001 3.25106L10.0901 2.14606C9.86045 2.01346 9.58751 1.97752 9.33133 2.04616C9.07516 2.1148 8.85674 2.28238 8.72413 2.51206L7.62013 4.42206H5.42113C5.15592 4.42206 4.90156 4.52741 4.71403 4.71495C4.52649 4.90249 4.42113 5.15684 4.42113 5.42206V7.62106L2.51113 8.72506C2.39716 8.79061 2.29727 8.87804 2.2172 8.98232C2.13712 9.0866 2.07844 9.20567 2.04452 9.3327C2.0106 9.45972 2.00212 9.5922 2.01956 9.72252C2.037 9.85283 2.08001 9.97842 2.14613 10.0921L3.25013 12.0001L2.14613 13.9081C2.01412 14.1378 1.9783 14.4105 2.04649 14.6666C2.11468 14.9226 2.28134 15.1414 2.51013 15.2751L4.42013 16.3791V18.5781C4.42013 18.8433 4.52549 19.0976 4.71303 19.2852C4.90056 19.4727 5.15492 19.5781 5.42013 19.5781H7.62013L8.72413 21.4881C8.81266 21.6394 8.93907 21.7651 9.09091 21.8528C9.24275 21.9404 9.4148 21.9871 9.59013 21.9881C9.76413 21.9881 9.93713 21.9421 10.0911 21.8531L11.9991 20.7491L13.9091 21.8531C14.1388 21.9855 14.4115 22.0214 14.6676 21.953C14.9237 21.8846 15.1422 21.7174 15.2751 21.4881L16.3781 19.5781H18.5771C18.8424 19.5781 19.0967 19.4727 19.2842 19.2852C19.4718 19.0976 19.5771 18.8433 19.5771 18.5781V16.3791L21.4871 15.2751C21.6009 15.2093 21.7006 15.1218 21.7805 15.0175C21.8605 14.9132 21.919 14.7942 21.9529 14.6672C21.9868 14.5402 21.9954 14.4079 21.9781 14.2776C21.9608 14.1473 21.918 14.0218 21.8521 13.9081L20.7491 12.0001ZM9.49913 6.99006C9.89709 6.99019 10.2787 7.14841 10.56 7.4299C10.8413 7.71139 10.9993 8.0931 10.9991 8.49106C10.999 8.88902 10.8408 9.27062 10.5593 9.55193C10.2778 9.83323 9.89609 9.99119 9.49813 9.99106C9.10018 9.99093 8.71857 9.83271 8.43727 9.55122C8.15596 9.26973 7.998 8.88801 7.99813 8.49006C7.99827 8.0921 8.15648 7.71049 8.43797 7.42919C8.71946 7.14789 9.10117 6.98992 9.49913 6.99006ZM9.79913 16.5901L8.19913 15.3911L14.1991 7.39106L15.7991 8.59006L9.79913 16.5901ZM14.4991 16.9901C14.3021 16.99 14.107 16.9511 13.925 16.8756C13.7429 16.8002 13.5776 16.6896 13.4383 16.5502C13.299 16.4108 13.1885 16.2454 13.1132 16.0633C13.0378 15.8812 12.9991 15.6861 12.9991 15.4891C12.9992 15.292 13.0381 15.0969 13.1135 14.9149C13.189 14.7329 13.2996 14.5675 13.439 14.4282C13.5784 14.2889 13.7438 14.1784 13.9259 14.1031C14.108 14.0277 14.3031 13.989 14.5001 13.9891C14.8981 13.9892 15.2797 14.1474 15.561 14.4289C15.8423 14.7104 16.0003 15.0921 16.0001 15.4901C16 15.888 15.8418 16.2696 15.5603 16.5509C15.2788 16.8322 14.8971 16.9902 14.4991 16.9901Z" fill="#25A870"/>
</svg>
