<svg width="24" height="26" viewBox="0 0 24 26" fill="none" xmlns="http://www.w3.org/2000/svg">
<path d="M16 9.79037C16 10.0762 15.8946 10.3504 15.7071 10.5525C15.5196 10.7547 15.2652 10.8682 15 10.8682C14.7348 10.8682 14.4804 10.7547 14.2929 10.5525C14.1054 10.3504 14 10.0762 14 9.79037C14 9.50451 14.1054 9.23035 14.2929 9.02822C14.4804 8.82608 14.7348 8.71252 15 8.71252C15.2652 8.71252 15.5196 8.82608 15.7071 9.02822C15.8946 9.23035 16 9.50451 16 9.79037ZM10 9.79037C10 10.0762 9.89464 10.3504 9.70711 10.5525C9.51957 10.7547 9.26522 10.8682 9 10.8682C8.73478 10.8682 8.48043 10.7547 8.29289 10.5525C8.10536 10.3504 8 10.0762 8 9.79037C8 9.50451 8.10536 9.23035 8.29289 9.02822C8.48043 8.82608 8.73478 8.71252 9 8.71252C9.26522 8.71252 9.51957 8.82608 9.70711 9.02822C9.89464 9.23035 10 9.50451 10 9.79037Z" fill="#FBF8FC"/>
<path fill-rule="evenodd" clip-rule="evenodd" d="M11.9999 3.0539C11.4032 3.0539 10.8309 3.30941 10.4089 3.76421C9.98698 4.21901 9.74993 4.83586 9.74993 5.47905V5.75282C10.1679 5.74851 10.6179 5.74851 11.1049 5.74851H12.8949C13.3819 5.74851 13.8329 5.74851 14.2499 5.75282V5.47905C14.2499 4.83586 14.0129 4.21901 13.5909 3.76421C13.169 3.30941 12.5967 3.0539 11.9999 3.0539ZM15.7499 5.80995V5.47905C15.7499 4.40707 15.3548 3.37899 14.6516 2.62098C13.9483 1.86298 12.9945 1.43713 11.9999 1.43713C11.0054 1.43713 10.0515 1.86298 9.34828 2.62098C8.64502 3.37899 8.24993 4.40707 8.24993 5.47905V5.80995C8.11493 5.82073 7.98493 5.83258 7.85893 5.84767C6.98093 5.95007 6.24593 6.16348 5.59393 6.64528C5.36955 6.81089 5.15877 6.99696 4.96393 7.20145C4.39793 7.79641 4.05893 8.5315 3.79393 9.43905C3.53693 10.3218 3.32893 11.4428 3.06693 12.8515L3.04793 12.9539C2.67193 14.9835 2.37493 16.583 2.28993 17.857C2.20193 19.159 2.32393 20.2531 2.89593 21.2026C3.08693 21.5195 3.30993 21.8116 3.55993 22.0757C4.31193 22.8668 5.28393 23.2096 6.48493 23.3734C7.66093 23.5329 9.17493 23.5329 11.0949 23.5329H12.9049C14.8259 23.5329 16.3389 23.5329 17.5149 23.3734C18.7159 23.2096 19.6889 22.8668 20.4399 22.0757C20.6904 21.812 20.9131 21.5192 21.1039 21.2026C21.6759 20.2541 21.7979 19.159 21.7109 17.857C21.6249 16.583 21.3289 14.9835 20.9509 12.9539L20.9329 12.8515C20.6719 11.4428 20.4629 10.3218 20.2059 9.43905C19.9409 8.5315 19.6019 7.79641 19.0359 7.20145C18.8411 6.99695 18.6303 6.81087 18.4059 6.64528C17.7539 6.16348 17.0189 5.95007 16.1409 5.84767C16.0111 5.83269 15.8811 5.82012 15.7509 5.80995H15.7499ZM8.01993 7.45474C7.27293 7.54097 6.81193 7.70588 6.44193 7.97857C6.28839 8.09221 6.14419 8.21986 6.01093 8.36013C5.68993 8.69749 5.45093 9.15234 5.22493 9.92408C4.99493 10.7141 4.80093 11.7489 4.52993 13.2137C4.13993 15.3133 3.86293 16.8137 3.78593 17.9734C3.70893 19.1181 3.83793 19.7982 4.15393 20.322C4.28393 20.5376 4.43693 20.7392 4.60793 20.9192C5.02293 21.3557 5.61593 21.6252 6.67293 21.7696C7.74293 21.9151 9.16293 21.9162 11.1489 21.9162H12.8519C14.8379 21.9162 16.2559 21.9151 17.3269 21.7696C18.3839 21.6252 18.9769 21.3557 19.3919 20.9192C19.5632 20.7388 19.7155 20.5385 19.8459 20.322C20.1619 19.7982 20.2909 19.1181 20.2149 17.9723C20.1369 16.8126 19.8599 15.3133 19.4709 13.2137C19.1989 11.7489 19.0059 10.7131 18.7749 9.92408C18.5499 9.15234 18.3099 8.69749 17.9889 8.36013C17.856 8.2199 17.7121 8.09224 17.5589 7.97857C17.1889 7.70588 16.7269 7.54204 15.9799 7.45474C15.2169 7.36636 14.2369 7.36528 12.8509 7.36528H11.1499C9.76393 7.36528 8.78393 7.36636 8.01993 7.45474Z" fill="#FBF8FC"/>
</svg>
