<svg width="24" height="24" viewBox="0 0 24 24" fill="none" xmlns="http://www.w3.org/2000/svg">
<path d="M7.3125 9.75C7.3125 10.0312 7.25781 10.2969 7.14844 10.5469C7.03906 10.7969 6.89062 11.0156 6.70312 11.2031C6.51562 11.3906 6.29688 11.5391 6.04688 11.6484C5.79688 11.7578 5.53125 11.8125 5.25 11.8125C4.96875 11.8125 4.70312 11.7578 4.45312 11.6484C4.20312 11.5391 3.98438 11.3906 3.79688 11.2031C3.60938 11.0156 3.46094 10.7969 3.35156 10.5469C3.24219 10.2969 3.1875 10.0312 3.1875 9.75C3.1875 9.46875 3.24219 9.20312 3.35156 8.95312C3.46094 8.70312 3.60938 8.48438 3.79688 8.29688C3.98438 8.10938 4.20312 7.96094 4.45312 7.85156C4.70312 7.74219 4.96875 7.6875 5.25 7.6875C5.53125 7.6875 5.79688 7.74219 6.04688 7.85156C6.29688 7.96094 6.51562 8.10938 6.70312 8.29688C6.89062 8.48438 7.03906 8.70312 7.14844 8.95312C7.25781 9.20312 7.3125 9.46875 7.3125 9.75ZM5.25 10.6875C5.50781 10.6875 5.72656 10.5977 5.90625 10.418C6.08594 10.2383 6.17969 10.0156 6.1875 9.75C6.1875 9.49219 6.09766 9.27344 5.91797 9.09375C5.73828 8.91406 5.51562 8.82031 5.25 8.8125C4.99219 8.8125 4.77344 8.90234 4.59375 9.08203C4.41406 9.26172 4.32031 9.48438 4.3125 9.75C4.3125 10.0078 4.40234 10.2266 4.58203 10.4062C4.76172 10.5859 4.98438 10.6797 5.25 10.6875ZM11.25 12.1875C11.5312 12.1875 11.7969 12.2422 12.0469 12.3516C12.2969 12.4609 12.5156 12.6094 12.7031 12.7969C12.8906 12.9844 13.0391 13.2031 13.1484 13.4531C13.2578 13.7031 13.3125 13.9688 13.3125 14.25C13.3125 14.5312 13.2578 14.7969 13.1484 15.0469C13.0391 15.2969 12.8906 15.5156 12.7031 15.7031C12.5156 15.8906 12.2969 16.0391 12.0469 16.1484C11.7969 16.2578 11.5312 16.3125 11.25 16.3125C10.9688 16.3125 10.7031 16.2578 10.4531 16.1484C10.2031 16.0391 9.98438 15.8906 9.79688 15.7031C9.60938 15.5156 9.46094 15.2969 9.35156 15.0469C9.24219 14.7969 9.1875 14.5312 9.1875 14.25C9.1875 13.9688 9.24219 13.7031 9.35156 13.4531C9.46094 13.2031 9.60938 12.9844 9.79688 12.7969C9.98438 12.6094 10.2031 12.4609 10.4531 12.3516C10.7031 12.2422 10.9688 12.1875 11.25 12.1875ZM11.25 15.1875C11.5078 15.1875 11.7266 15.0977 11.9062 14.918C12.0859 14.7383 12.1797 14.5156 12.1875 14.25C12.1875 13.9922 12.0977 13.7734 11.918 13.5938C11.7383 13.4141 11.5156 13.3203 11.25 13.3125C10.9922 13.3125 10.7734 13.4023 10.5938 13.582C10.4141 13.7617 10.3203 13.9844 10.3125 14.25C10.3125 14.5078 10.4023 14.7266 10.582 14.9062C10.7617 15.0859 10.9844 15.1797 11.25 15.1875ZM9.86719 7.5H11.1328L6.63281 16.5H5.36719L9.86719 7.5ZM16.5 4.5L24 12L16.5 19.5H0V4.5H16.5ZM15.8789 18L21.8789 12L15.8789 6H1.5V18H15.8789ZM18 11.25C18.2031 11.25 18.3789 11.3242 18.5273 11.4727C18.6758 11.6211 18.75 11.7969 18.75 12C18.75 12.2031 18.6758 12.3789 18.5273 12.5273C18.3789 12.6758 18.2031 12.75 18 12.75C17.7969 12.75 17.6211 12.6758 17.4727 12.5273C17.3242 12.3789 17.25 12.2031 17.25 12C17.25 11.7969 17.3242 11.6211 17.4727 11.4727C17.6211 11.3242 17.7969 11.25 18 11.25Z" fill="#026304"/>
</svg>
