<svg width="50" height="50" viewBox="0 0 50 50" fill="none" xmlns="http://www.w3.org/2000/svg">
<g clip-path="url(#clip0_99_4244)">
<path d="M45.4297 34.8047H4.57031C2.03125 34.8047 0 32.7734 0 30.2344V14.6094C0 12.1094 2.03125 10.0781 4.57031 10.0781H45.4688C47.9688 10.0781 50.0391 12.1094 50.0391 14.6484V30.2734C50 32.7734 47.9688 34.8047 45.4297 34.8047Z" fill="#7F54B3"/>
<path d="M5.39062 29.9606C5.39062 29.9606 6.48437 34.57 8.71094 31.484C10.9375 28.3981 13.0859 23.5543 13.0859 23.5543C13.0859 23.5543 13.2422 22.3434 13.8672 24.9997C14.4922 27.6559 17.1875 31.2497 17.1875 31.2497C17.1875 31.2497 19.6484 34.3356 20.6641 31.0934C20.2734 26.7965 21.7578 18.984 23.2812 15.234C23.9062 11.9137 20.4297 12.8512 20.1172 13.6325C19.8047 14.4137 17.6562 19.4137 17.5 24.6481C17.5 24.6481 15.6641 19.6481 15.5078 17.8512C15.3516 16.0153 13.4375 15.5465 12.3438 17.3043C11.25 19.0622 7.92969 25.859 7.92969 25.859L5.78125 14.7653C5.78125 14.7653 3.63281 11.9137 2.38281 15.3903C2.38281 15.3903 4.60938 29.0231 5.39062 29.9606ZM33.9844 17.8512C30.6641 12.3043 25.7422 16.5231 25.7422 16.5231C25.7422 16.5231 21.9922 20.859 23.6719 26.7575C26.3672 32.5778 30.1563 29.9997 31.1719 29.5309C32.2266 29.0231 36.6797 23.945 33.9844 17.8512ZM31.4453 22.734C31.4453 25.0387 29.5312 27.1872 27.9688 26.7184C27.1094 26.2106 26.5625 24.8434 26.5625 22.4997C27.3438 18.7106 29.0625 18.2028 29.9609 18.2809C31.6406 19.1793 31.5625 21.1715 31.4453 22.734ZM46.4453 17.8512C43.125 12.3043 38.2031 16.5231 38.2031 16.5231C38.2031 16.5231 34.4531 20.859 36.1328 26.7575C38.8281 32.5778 42.6172 29.9997 43.6328 29.5309C44.6484 29.0231 49.1406 23.945 46.4453 17.8512ZM43.9062 22.734C43.9062 25.0387 41.9922 27.1872 40.4297 26.7184C39.5703 26.2106 39.0234 24.8434 39.0234 22.4997C39.8047 18.7106 41.5234 18.2028 42.4219 18.2809C44.0625 19.1793 43.9844 21.1715 43.9062 22.734Z" fill="white"/>
<path d="M23.9453 34.8047L32.6562 39.9219L30.8203 34.8047L25.8203 33.3984L23.9453 34.8047Z" fill="#7F54B3"/>
</g>
<defs>
<clipPath id="clip0_99_4244">
<rect width="50" height="50" fill="white"/>
</clipPath>
</defs>
</svg>
