<svg width="25" height="25" viewBox="0 0 25 25" fill="none" xmlns="http://www.w3.org/2000/svg">
<path d="M24.1718 12.2344C23.2529 9.85754 21.6577 7.80204 19.5833 6.32194C17.509 4.84184 15.0464 4.00201 12.4999 3.90625C9.95344 4.00201 7.49084 4.84184 5.41648 6.32194C3.34211 7.80204 1.74691 9.85754 0.828037 12.2344C0.76598 12.406 0.76598 12.594 0.828037 12.7656C1.74691 15.1425 3.34211 17.198 5.41648 18.6781C7.49084 20.1582 9.95344 20.998 12.4999 21.0938C15.0464 20.998 17.509 20.1582 19.5833 18.6781C21.6577 17.198 23.2529 15.1425 24.1718 12.7656C24.2338 12.594 24.2338 12.406 24.1718 12.2344ZM12.4999 19.5312C8.35929 19.5312 3.98429 16.4609 2.39835 12.5C3.98429 8.53906 8.35929 5.46875 12.4999 5.46875C16.6405 5.46875 21.0155 8.53906 22.6015 12.5C21.0155 16.4609 16.6405 19.5312 12.4999 19.5312Z" fill="#25A870"/>
<path d="M12.5 7.8125C11.5729 7.8125 10.6666 8.08742 9.89577 8.60249C9.12491 9.11756 8.5241 9.84964 8.16932 10.7062C7.81453 11.5627 7.7217 12.5052 7.90257 13.4145C8.08344 14.3238 8.52988 15.159 9.18544 15.8146C9.841 16.4701 10.6762 16.9166 11.5855 17.0974C12.4948 17.2783 13.4373 17.1855 14.2938 16.8307C15.1504 16.4759 15.8824 15.8751 16.3975 15.1042C16.9126 14.3334 17.1875 13.4271 17.1875 12.5C17.1875 11.2568 16.6936 10.0645 15.8146 9.18544C14.9355 8.30636 13.7432 7.8125 12.5 7.8125ZM12.5 15.625C11.8819 15.625 11.2777 15.4417 10.7638 15.0983C10.2499 14.755 9.8494 14.2669 9.61288 13.6959C9.37635 13.1249 9.31447 12.4965 9.43505 11.8903C9.55563 11.2842 9.85325 10.7273 10.2903 10.2903C10.7273 9.85325 11.2842 9.55562 11.8903 9.43505C12.4965 9.31447 13.1249 9.37635 13.6959 9.61288C14.2669 9.8494 14.755 10.2499 15.0983 10.7638C15.4417 11.2777 15.625 11.8819 15.625 12.5C15.625 13.3288 15.2958 14.1237 14.7097 14.7097C14.1237 15.2958 13.3288 15.625 12.5 15.625Z" fill="#25A870"/>
</svg>
