<svg width="60" height="60" viewBox="0 0 60 60" fill="none" xmlns="http://www.w3.org/2000/svg">
<path d="M56.0323 47.1375L37.4998 16.2563V3.75H39.3748C40.4061 3.75 41.2498 2.90625 41.2498 1.875C41.2498 0.84375 40.4061 0 39.3748 0H20.6248C19.5936 0 18.7498 0.84375 18.7498 1.875C18.7498 2.90625 19.5936 3.75 20.6248 3.75H22.4998V16.2563L3.96733 47.1375C-0.27767 54.21 2.99983 60 11.2498 60H48.7498C56.9998 60 60.2773 54.2137 56.0323 47.1375ZM14.1223 37.5L26.2498 17.2875V3.75H33.7498V17.2875L45.8773 37.5H14.1223Z" fill="#25A870"/>
</svg>
