<svg width="48" height="39" viewBox="0 0 48 39" fill="none" xmlns="http://www.w3.org/2000/svg">
<path d="M40.8001 18.5273V18.7738L46.0276 13.5667C47.6701 11.9306 47.6701 9.286 46.0276 7.64991L40.1701 1.82277C38.5276 0.186682 35.8726 0.186682 34.2301 1.82277L31.2226 4.81852C31.0201 4.79611 30.8101 4.78116 30.6001 4.78116H22.2001C19.4176 4.78116 17.1301 6.87296 16.8301 9.56242H16.8001V18.5273C16.8001 20.1783 18.1426 21.5155 19.8001 21.5155C21.4576 21.5155 22.8001 20.1783 22.8001 18.5273V11.953H34.8001C38.1151 11.953 40.8001 14.6276 40.8001 17.9296V18.5273ZM25.2001 14.3437V18.5273C25.2001 21.5006 22.7851 23.9062 19.8001 23.9062C16.8151 23.9062 14.4001 21.5006 14.4001 18.5273V9.667C11.7076 10.1302 9.4651 12.08 8.7001 14.762L7.4626 19.0651L1.9726 24.5337C0.330098 26.1698 0.330098 28.8144 1.9726 30.4505L7.8301 36.2851C9.4726 37.9212 12.1276 37.9212 13.7701 36.2851L16.5976 33.4687C16.6651 33.4687 16.7326 33.4761 16.8001 33.4761H28.8001C30.7876 33.4761 32.4001 31.8699 32.4001 29.8902C32.4001 29.4718 32.3251 29.0684 32.1976 28.6949H32.4001C34.3876 28.6949 36.0001 27.0887 36.0001 25.1089C36.0001 24.1527 35.6251 23.2861 35.0101 22.6436C36.9376 22.2701 38.3926 20.5817 38.4001 18.5497V18.5198C38.3926 16.2188 36.5176 14.3511 34.2001 14.3511H25.2001V14.3437Z" fill="#25A870"/>
</svg>
