<svg width="78" height="63" viewBox="0 0 78 63" fill="none" xmlns="http://www.w3.org/2000/svg">
<path d="M67 30.8788V31.2897L75.7125 22.6113C78.45 19.8845 78.45 15.4767 75.7125 12.7499L65.95 3.03802C63.2125 0.311218 58.7875 0.311218 56.05 3.03802L51.0375 8.03094C50.7 7.99359 50.35 7.96869 50 7.96869H36C31.3625 7.96869 27.55 11.455 27.05 15.9374H27V30.8788C27 33.6306 29.2375 35.8593 32 35.8593C34.7625 35.8593 37 33.6306 37 30.8788V19.9218H57C62.525 19.9218 67 24.3793 67 29.8827V30.8788ZM41 23.9062V30.8788C41 35.8344 36.975 39.8437 32 39.8437C27.025 39.8437 23 35.8344 23 30.8788V16.1118C18.5125 16.8837 14.775 20.1335 13.5 24.6035L11.4375 31.7753L2.2875 40.8896C-0.45 43.6164 -0.45 48.0241 2.2875 50.7509L12.05 60.4753C14.7875 63.2021 19.2125 63.2021 21.95 60.4753L26.6625 55.7812C26.775 55.7812 26.8875 55.7936 27 55.7936H47C50.3125 55.7936 53 53.1166 53 49.8171C53 49.1198 52.875 48.4474 52.6625 47.8249H53C56.3125 47.8249 59 45.1479 59 41.8483C59 40.2546 58.375 38.8102 57.35 37.7394C60.5625 37.1169 62.9875 34.3029 63 30.9162V30.8664C62.9875 27.0314 59.8625 23.9186 56 23.9186H41V23.9062Z" fill="#25A870"/>
</svg>
