<svg width="20" height="20" viewBox="0 0 20 20" fill="none" xmlns="http://www.w3.org/2000/svg">
<path d="M18.6776 15.7125L12.5001 5.41875V1.25H13.1251C13.4689 1.25 13.7501 0.96875 13.7501 0.625C13.7501 0.28125 13.4689 0 13.1251 0H6.87511C6.53136 0 6.25011 0.28125 6.25011 0.625C6.25011 0.96875 6.53136 1.25 6.87511 1.25H7.50011V5.41875L1.32261 15.7125C-0.0923938 18.07 1.00011 20 3.75011 20H16.2501C19.0001 20 20.0926 18.0712 18.6776 15.7125ZM4.70761 12.5L8.75011 5.7625V1.25H11.2501V5.7625L15.2926 12.5H4.70761Z" fill="#FBF8FC"/>
</svg>
