<svg width="20" height="20" viewBox="0 0 20 20" fill="none" xmlns="http://www.w3.org/2000/svg">
<mask id="mask0_232_3269" style="mask-type:luminance" maskUnits="userSpaceOnUse" x="1" y="1" width="18" height="18">
<path d="M10.0003 18.3334C11.0949 18.3348 12.1789 18.1199 13.1902 17.701C14.2014 17.2822 15.1199 16.6676 15.8928 15.8926C16.6678 15.1196 17.2824 14.2012 17.7013 13.1899C18.1202 12.1787 18.3351 11.0946 18.3337 10.0001C18.3351 8.90553 18.1201 7.8215 17.7013 6.81027C17.2824 5.79904 16.6678 4.88055 15.8928 4.10759C15.1199 3.3326 14.2014 2.718 13.1902 2.29912C12.1789 1.88024 11.0949 1.66534 10.0003 1.66676C8.90578 1.66536 7.82174 1.88028 6.81051 2.29916C5.79928 2.71803 4.88079 3.33262 4.10783 4.10759C3.33286 4.88055 2.71828 5.79904 2.2994 6.81027C1.88052 7.8215 1.6656 8.90553 1.667 10.0001C1.66558 11.0946 1.88049 12.1787 2.29937 13.1899C2.71825 14.2012 3.33284 15.1196 4.10783 15.8926C4.88079 16.6676 5.79928 17.2821 6.81051 17.701C7.82174 18.1199 8.90578 18.3348 10.0003 18.3334Z" fill="white" stroke="white" stroke-linejoin="round"/>
<path d="M6.66699 10L9.16699 12.5L14.167 7.5" stroke="black" stroke-linecap="round" stroke-linejoin="round"/>
</mask>
<g mask="url(#mask0_232_3269)">
<path d="M0 0H20V20H0V0Z" fill="#25A870"/>
</g>
</svg>
