<svg width="24" height="24" viewBox="0 0 24 24" fill="none" xmlns="http://www.w3.org/2000/svg">
<g id="ion:star" clip-path="url(#clip0_282_8994)">
<path id="Vector" d="M18.3152 22.3125C18.1587 22.3131 18.0059 22.2643 17.8787 22.1731L11.9004 17.8389L5.92203 22.1731C5.79431 22.2657 5.64043 22.3153 5.48265 22.3148C5.32487 22.3142 5.17136 22.2634 5.04431 22.1699C4.91727 22.0763 4.82327 21.9448 4.77591 21.7943C4.72854 21.6438 4.73027 21.4821 4.78084 21.3326L7.1125 14.4265L1.06953 10.2824C0.938635 10.1927 0.839843 10.0635 0.787589 9.91373C0.735334 9.76392 0.732356 9.60133 0.779088 9.44971C0.825821 9.29808 0.919816 9.16538 1.04734 9.07098C1.17486 8.97659 1.32923 8.92544 1.48789 8.92503H8.94305L11.1929 2.00118C11.2414 1.85169 11.3359 1.7214 11.463 1.629C11.5901 1.53659 11.7432 1.48682 11.9004 1.48682C12.0575 1.48682 12.2106 1.53659 12.3377 1.629C12.4648 1.7214 12.5594 1.85169 12.6079 2.00118L14.8577 8.92735H22.3129C22.4717 8.92727 22.6265 8.97806 22.7544 9.07228C22.8823 9.16649 22.9766 9.29918 23.0237 9.45092C23.0707 9.60266 23.0679 9.76547 23.0157 9.9155C22.9635 10.0655 22.8646 10.1949 22.7336 10.2847L16.6883 14.4265L19.0185 21.3308C19.0563 21.4426 19.0669 21.5617 19.0495 21.6784C19.0321 21.7951 18.9872 21.906 18.9185 22.0019C18.8498 22.0978 18.7593 22.176 18.6544 22.23C18.5495 22.284 18.4332 22.3123 18.3152 22.3125Z" fill="#30511F"/>
</g>
<defs>
<clipPath id="clip0_282_8994">
<rect width="23.8" height="23.8" fill="white"/>
</clipPath>
</defs>
</svg>
