<svg width="20" height="20" viewBox="0 0 20 20" fill="none" xmlns="http://www.w3.org/2000/svg">
<path d="M6.42543 3.30066L4.3748 5.35191L3.57418 4.55003L2.6748 5.45003L3.9248 6.70003L4.37418 7.12941L4.82355 6.70003L7.32355 4.20003L6.42543 3.30066ZM9.3748 4.37503V5.62503H17.4998V4.37503H9.3748ZM6.42543 8.30066L4.3748 10.3513L3.57418 9.55128L2.67543 10.4494L3.92543 11.6994L4.3748 12.1288L4.82418 11.6994L7.32418 9.19941L6.42543 8.30066ZM9.3748 9.37503V10.625H17.4998V9.37503H9.3748ZM6.42543 13.3007L4.3748 15.3519L3.57418 14.55L2.6748 15.45L3.9248 16.7L4.37418 17.1294L4.82355 16.7L7.32355 14.2L6.42543 13.3007ZM9.3748 14.375V15.625H17.4998V14.375H9.3748Z" fill="#818181"/>
</svg>
