<svg width="52" height="41" viewBox="0 0 52 41" fill="none" xmlns="http://www.w3.org/2000/svg">
<g clip-path="url(#clip0_93_2529)">
<path d="M9.45342 40.7959V38.0823C9.45342 37.0419 8.82902 36.3636 7.75875 36.3636C7.22372 36.3636 6.644 36.5445 6.24262 37.1325C5.93062 36.6349 5.48477 36.3636 4.81588 36.3636C4.36981 36.3636 3.92416 36.4992 3.56727 36.9967V36.4541H2.63086V40.7959H3.56727V38.3988C3.56727 37.6301 3.96864 37.2681 4.59305 37.2681C5.21705 37.2681 5.52945 37.6752 5.52945 38.3988V40.7959H6.46586V38.3988C6.46586 37.6301 6.91152 37.2681 7.49123 37.2681C8.11564 37.2681 8.42764 37.6752 8.42764 38.3988V40.7959H9.45342ZM23.321 36.4541H21.805V35.1425H20.8686V36.4541H20.0214V37.3132H20.8684V39.3035C20.8684 40.2986 21.2698 40.8864 22.3401 40.8864C22.7415 40.8864 23.1871 40.7508 23.4995 40.5699L23.2318 39.7557C22.9643 39.9366 22.6523 39.9819 22.4292 39.9819C21.9834 39.9819 21.805 39.7106 21.805 39.2581V37.3132H23.321V36.4541ZM31.2583 36.3634C30.7232 36.3634 30.3666 36.6349 30.1435 36.9967V36.4541H29.2071V40.7959H30.1435V38.3537C30.1435 37.6301 30.4555 37.223 31.0353 37.223C31.2136 37.223 31.4366 37.2683 31.615 37.3134L31.8825 36.4089C31.7041 36.3636 31.4366 36.3636 31.2583 36.3636V36.3634ZM19.2633 36.8158C18.8173 36.4992 18.1931 36.3636 17.5242 36.3636C16.4541 36.3636 15.7408 36.9063 15.7408 37.7656C15.7408 38.4894 16.2758 38.8963 17.2122 39.0321L17.658 39.0774C18.1486 39.1677 18.4161 39.3035 18.4161 39.5297C18.4161 39.8461 18.0594 40.0724 17.435 40.0724C16.8108 40.0724 16.3203 39.8461 16.0081 39.6201L15.5622 40.3437C16.0527 40.7055 16.7216 40.8864 17.3903 40.8864C18.6389 40.8864 19.3525 40.2986 19.3525 39.4843C19.3525 38.7154 18.7728 38.3083 17.8809 38.1728L17.435 38.1274C17.0336 38.0821 16.7216 37.9919 16.7216 37.7205C16.7216 37.4039 17.0336 37.223 17.5242 37.223C18.0594 37.223 18.5945 37.449 18.862 37.5847L19.2633 36.8158ZM44.1451 36.3636C43.6099 36.3636 43.2532 36.6349 43.0302 36.9967V36.4541H42.0938V40.7959H43.0302V38.3537C43.0302 37.6301 43.3424 37.223 43.9219 37.223C44.1005 37.223 44.3235 37.2683 44.5018 37.3134L44.7693 36.4089C44.591 36.3636 44.3235 36.3636 44.1451 36.3636ZM32.1947 38.625C32.1947 39.9366 33.0864 40.8864 34.4689 40.8864C35.0931 40.8864 35.5389 40.7508 35.9848 40.389L35.5389 39.6201C35.1823 39.8915 34.8256 40.027 34.4242 40.027C33.6661 40.027 33.1311 39.4843 33.1311 38.625C33.1311 37.811 33.6661 37.2681 34.4242 37.223C34.8256 37.223 35.1823 37.3585 35.5389 37.6301L35.9848 36.8612C35.5389 36.4992 35.0931 36.3636 34.4689 36.3636C33.0864 36.3636 32.1947 37.3134 32.1947 38.625ZM40.8454 38.625V36.4541H39.909V36.9967C39.5968 36.5898 39.1509 36.3636 38.5712 36.3636C37.3673 36.3636 36.4309 37.3134 36.4309 38.625C36.4309 39.9366 37.3673 40.8864 38.5712 40.8864C39.1954 40.8864 39.6415 40.6604 39.909 40.2533V40.7959H40.8454V38.625ZM37.4118 38.625C37.4118 37.8561 37.9023 37.223 38.7048 37.223C39.4629 37.223 39.9981 37.811 39.9981 38.625C39.9981 39.3939 39.4629 40.027 38.7048 40.027C37.9023 39.9817 37.4118 39.3939 37.4118 38.625ZM26.2196 36.3636C24.971 36.3636 24.079 37.2681 24.079 38.625C24.079 39.9819 24.9708 40.8864 26.264 40.8864C26.8883 40.8864 27.5127 40.7055 28.0032 40.2986L27.5571 39.6201C27.2005 39.8915 26.7546 40.0724 26.3087 40.0724C25.729 40.0724 25.1493 39.801 25.0154 39.0319H28.1815V38.6703C28.2262 37.2681 27.4237 36.3636 26.2196 36.3636ZM26.2196 37.1776C26.7991 37.1776 27.2007 37.5396 27.2896 38.2181H25.0601C25.1493 37.6301 25.5507 37.1776 26.2196 37.1776ZM49.4514 38.625V34.7354H48.515V36.9967C48.2028 36.5898 47.7569 36.3636 47.1772 36.3636C45.9733 36.3636 45.0369 37.3134 45.0369 38.625C45.0369 39.9366 45.9733 40.8864 47.1772 40.8864C47.8016 40.8864 48.2475 40.6604 48.515 40.2533V40.7959H49.4514V38.625ZM46.018 38.625C46.018 37.8561 46.5083 37.223 47.311 37.223C48.0691 37.223 48.6041 37.811 48.6041 38.625C48.6041 39.3939 48.0691 40.027 47.311 40.027C46.5083 39.9817 46.018 39.3939 46.018 38.625ZM14.715 38.625V36.4541H13.7786V36.9967C13.4664 36.5898 13.0205 36.3636 12.4408 36.3636C11.2369 36.3636 10.3005 37.3134 10.3005 38.625C10.3005 39.9366 11.2369 40.8864 12.4408 40.8864C13.0652 40.8864 13.511 40.6604 13.7786 40.2533V40.7959H14.715V38.625ZM11.2369 38.625C11.2369 37.8561 11.7274 37.223 12.53 37.223C13.288 37.223 13.8233 37.811 13.8233 38.625C13.8233 39.3939 13.288 40.027 12.53 40.027C11.7274 39.9817 11.2369 39.3939 11.2369 38.625Z" fill="black"/>
<path d="M18.9512 3.48242H32.9973V29.0819H18.9512V3.48242Z" fill="#FF5F00"/>
<path d="M19.8431 16.2824C19.8431 11.0811 22.2509 6.4677 25.9519 3.48253C23.232 1.31159 19.7986 0 16.053 0C7.17905 0 0 7.28172 0 16.2824C0 25.2828 7.17905 32.5647 16.0528 32.5647C19.7984 32.5647 23.2318 31.2531 25.9519 29.082C22.2509 26.1421 19.8431 21.4836 19.8431 16.2824Z" fill="#EB001B"/>
<path d="M51.9484 16.2824C51.9484 25.2828 44.7694 32.5647 35.8957 32.5647C32.15 32.5647 28.7166 31.2531 25.9966 29.082C29.7422 26.097 32.1056 21.4836 32.1056 16.2824C32.1056 11.0811 29.6975 6.4677 25.9966 3.48253C28.7164 1.31159 32.15 0 35.8957 0C44.7694 0 51.9484 7.32705 51.9484 16.2824Z" fill="#F79E1B"/>
</g>
<defs>
<clipPath id="clip0_93_2529">
<rect width="52" height="41" fill="white"/>
</clipPath>
</defs>
</svg>
