<svg width="90" height="14" viewBox="0 0 90 14" fill="none" xmlns="http://www.w3.org/2000/svg">
<g clip-path="url(#clip0_93_2536)">
<path d="M47.5236 0.0595703C43.308 0.0595703 39.8877 3.10945 39.8877 6.8735C39.8877 10.8755 43.1595 13.867 47.5236 13.867C51.7789 13.867 55.1388 10.8358 55.1388 6.95213C55.1388 3.09138 51.8014 0.0595703 47.5236 0.0595703Z" fill="url(#paint0_linear_93_2536)"/>
<g filter="url(#filter0_i_93_2536)">
<path d="M47.5236 0.0595703C43.308 0.0595703 39.8877 3.10945 39.8877 6.8735C39.8877 10.8755 43.1595 13.867 47.5236 13.867C51.7789 13.867 55.1388 10.8358 55.1388 6.95213C55.1388 3.09138 51.8014 0.0595703 47.5236 0.0595703Z" fill="url(#paint1_linear_93_2536)"/>
</g>
<path d="M4.17387 0.307836H0.0688477V13.5678H4.15242C6.3191 13.5678 7.88601 13.0924 9.26062 12.0379C10.8915 10.7852 11.8587 8.89635 11.8587 6.94416C11.8587 3.02937 8.70076 0.307836 4.17387 0.307836ZM7.43848 10.2669C6.55588 11.0043 5.41945 11.3231 3.61348 11.3231H2.86324V2.55321H3.61348C5.41945 2.55321 6.51229 2.85177 7.43848 3.62632C8.40439 4.42172 8.98043 5.65339 8.98043 6.92528C8.98043 8.19993 8.40439 9.47458 7.43848 10.2669ZM13.1479 13.5678H15.9379V0.307836H13.1482V13.5678H13.1479ZM22.768 5.39423C21.0912 4.81893 20.5978 4.43946 20.5978 3.72628C20.5978 2.89051 21.4764 2.25481 22.6806 2.25481C23.5179 2.25481 24.2048 2.57274 24.937 3.32597L26.3951 1.55921C25.1927 0.582952 23.7547 0.086603 22.1858 0.086603C19.6549 0.086603 17.7212 1.71777 17.7212 3.88288C17.7212 5.71363 18.6222 6.64723 21.2424 7.52435C22.3379 7.88037 22.8947 8.11788 23.1746 8.28018C23.7327 8.6183 24.0131 9.09381 24.0131 9.65007C24.0131 10.7255 23.089 11.5196 21.842 11.5196C20.5106 11.5196 19.4384 10.9039 18.7939 9.75084L16.9925 11.3631C18.2782 13.1103 19.8244 13.8883 21.952 13.8883C24.8503 13.8883 26.8887 12.0965 26.8887 9.53237C26.8887 7.42439 25.9465 6.4693 22.768 5.39423ZM27.7686 6.94432C27.7686 10.8456 31.0761 13.867 35.3283 13.867C36.5304 13.867 37.5609 13.6469 38.829 13.0923V10.0486C37.711 11.0836 36.7231 11.5 35.4557 11.5C32.6439 11.5 30.6458 9.61067 30.6458 6.92528C30.6458 4.38151 32.7063 2.373 35.3283 2.373C36.6574 2.373 37.6681 2.81009 38.829 3.86384V0.820463C37.6052 0.245812 36.5944 0.00878906 35.3921 0.00878906C31.1616 0.00878906 27.7686 3.09123 27.7686 6.94432ZM61.4575 9.21493L57.6354 0.307836H54.5863L60.6649 13.9066H62.1666L68.3511 0.307673H65.3246L61.4575 9.21493ZM69.6207 13.568H77.5423V11.3231H72.4114V7.74151H77.346V5.4963H72.4114V2.55304H77.5423V0.307998H69.6206V13.568H69.6207ZM88.597 4.22116C88.597 1.73714 86.7531 0.307836 83.5305 0.307836H79.3861V13.5678H82.1801V8.23851H82.5458L86.4086 13.5678H89.844L85.3322 7.98244C87.4395 7.58328 88.597 6.25051 88.597 4.22116ZM82.9928 6.41102H82.1801V2.39302H83.0374C84.7803 2.39302 85.7246 3.07104 85.7246 4.36149C85.7246 5.69263 84.7803 6.41102 82.9928 6.41102Z" fill="#0B1015"/>
</g>
<defs>
<filter id="filter0_i_93_2536" x="39.8877" y="0.0595703" width="18.251" height="16.8076" filterUnits="userSpaceOnUse" color-interpolation-filters="sRGB">
<feFlood flood-opacity="0" result="BackgroundImageFix"/>
<feBlend mode="normal" in="SourceGraphic" in2="BackgroundImageFix" result="shape"/>
<feColorMatrix in="SourceAlpha" type="matrix" values="0 0 0 0 0 0 0 0 0 0 0 0 0 0 0 0 0 0 127 0" result="hardAlpha"/>
<feOffset dx="3" dy="3"/>
<feGaussianBlur stdDeviation="4"/>
<feComposite in2="hardAlpha" operator="arithmetic" k2="-1" k3="1"/>
<feColorMatrix type="matrix" values="0 0 0 0 0 0 0 0 0 0 0 0 0 0 0 0 0 0 0.5 0"/>
<feBlend mode="normal" in2="shape" result="effect1_innerShadow_93_2536"/>
</filter>
<linearGradient id="paint0_linear_93_2536" x1="335.973" y1="125.196" x2="1283.56" y2="1205.89" gradientUnits="userSpaceOnUse">
<stop stop-color="#F34F26"/>
<stop offset="1" stop-color="#F69E35"/>
</linearGradient>
<linearGradient id="paint1_linear_93_2536" x1="335.973" y1="125.196" x2="1283.56" y2="1205.89" gradientUnits="userSpaceOnUse">
<stop stop-color="#F34F26"/>
<stop offset="1" stop-color="#F69E35"/>
</linearGradient>
<clipPath id="clip0_93_2536">
<rect width="90" height="14" fill="white"/>
</clipPath>
</defs>
</svg>
