<svg width="18" height="18" viewBox="0 0 18 18" fill="none" xmlns="http://www.w3.org/2000/svg">
<path d="M11.454 0.041687C10.3148 0.041687 9.39564 0.041687 8.67314 0.139187C7.92314 0.239187 7.29147 0.455854 6.78981 0.956687C6.35314 1.39419 6.13147 1.93169 6.01564 2.56335C5.90314 3.17752 5.88147 3.92835 5.87647 4.83002C5.87559 4.99578 5.94059 5.1551 6.05718 5.27294C6.17376 5.39077 6.33238 5.45747 6.49814 5.45835C6.6639 5.45924 6.82322 5.39424 6.94106 5.27765C7.05889 5.16107 7.12559 5.00245 7.12647 4.83669C7.13147 3.92585 7.15481 3.28002 7.24481 2.78919C7.33231 2.31752 7.47147 2.04335 7.67397 1.84085C7.90481 1.61002 8.22897 1.46002 8.84064 1.37752C9.46981 1.29335 10.304 1.29169 11.4998 1.29169H12.3331C13.5298 1.29169 14.364 1.29335 14.9931 1.37752C15.6048 1.46002 15.9281 1.61085 16.1598 1.84085C16.3898 2.07169 16.5398 2.39502 16.6223 3.00752C16.7073 3.63585 16.7081 4.47085 16.7081 5.66669V12.3334C16.7081 13.5292 16.7073 14.3634 16.6223 14.9934C16.5398 15.605 16.3898 15.9284 16.159 16.1592C15.9281 16.39 15.6048 16.54 14.9931 16.6225C14.364 16.7067 13.5298 16.7084 12.3331 16.7084H11.4998C10.304 16.7084 9.46981 16.7067 8.83981 16.6225C8.22897 16.54 7.90481 16.3892 7.67397 16.1592C7.47147 15.9559 7.33231 15.6825 7.24481 15.2109C7.15481 14.72 7.13147 14.0742 7.12647 13.1634C7.12604 13.0813 7.10944 13.0001 7.07762 12.9244C7.04581 12.8488 6.9994 12.7801 6.94106 12.7224C6.88271 12.6647 6.81357 12.619 6.73757 12.588C6.66158 12.557 6.58022 12.5412 6.49814 12.5417C6.41606 12.5421 6.33488 12.5587 6.25922 12.5905C6.18356 12.6223 6.1149 12.6688 6.05718 12.7271C5.99945 12.7854 5.95378 12.8546 5.92277 12.9306C5.89177 13.0066 5.87604 13.0879 5.87647 13.17C5.88147 14.0717 5.90314 14.8225 6.01564 15.4367C6.13231 16.0684 6.35314 16.6059 6.79064 17.0434C7.29147 17.545 7.92397 17.76 8.67397 17.8617C9.39564 17.9584 10.3148 17.9584 11.454 17.9584H12.379C13.519 17.9584 14.4373 17.9584 15.1598 17.8617C15.9098 17.76 16.5415 17.545 17.0431 17.0434C17.5448 16.5417 17.7598 15.91 17.8615 15.16C17.9581 14.4375 17.9581 13.5184 17.9581 12.3792V5.62085C17.9581 4.48169 17.9581 3.56252 17.8615 2.84002C17.7606 2.09002 17.5448 1.45835 17.0431 0.956687C16.5415 0.45502 15.9098 0.24002 15.1598 0.139187C14.4373 0.041687 13.5181 0.041687 12.379 0.041687H11.454Z" fill="#FBF8FC"/>
<path d="M11.4998 8.375C11.6656 8.375 11.8245 8.44085 11.9418 8.55806C12.059 8.67527 12.1248 8.83424 12.1248 9C12.1248 9.16576 12.059 9.32473 11.9418 9.44194C11.8245 9.55915 11.6656 9.625 11.4998 9.625H2.35565L3.98981 11.025C4.11579 11.1329 4.19376 11.2863 4.20658 11.4517C4.21939 11.617 4.166 11.7807 4.05815 11.9067C3.95029 12.0326 3.79681 12.1106 3.63147 12.1234C3.46612 12.1362 3.30246 12.0829 3.17648 11.975L0.259814 9.475C0.191201 9.41632 0.136115 9.34348 0.0983444 9.26148C0.0605737 9.17948 0.0410156 9.09028 0.0410156 9C0.0410156 8.90972 0.0605737 8.82051 0.0983444 8.73851C0.136115 8.65651 0.191201 8.58367 0.259814 8.525L3.17648 6.025C3.23886 5.97159 3.31114 5.931 3.38921 5.90553C3.46728 5.88006 3.5496 5.87022 3.63147 5.87656C3.71334 5.88291 3.79316 5.90532 3.86637 5.94251C3.93958 5.9797 4.00474 6.03095 4.05815 6.09333C4.11155 6.15571 4.15215 6.22799 4.17761 6.30606C4.20308 6.38413 4.21292 6.46645 4.20658 6.54832C4.20023 6.63019 4.17783 6.71001 4.14063 6.78322C4.10344 6.85643 4.05219 6.92159 3.98981 6.975L2.35648 8.375H11.4998Z" fill="#FBF8FC"/>
</svg>
