<svg width="20" height="20" viewBox="0 0 20 20" fill="none" xmlns="http://www.w3.org/2000/svg">
<path d="M9.5835 11.6666C13.0335 11.6666 15.8335 12.975 15.8335 14.5833V16.6666H3.3335V14.5833C3.3335 12.975 6.1335 11.6666 9.5835 11.6666ZM15.0002 14.5833C15.0002 13.4333 12.5752 12.5 9.5835 12.5C6.59183 12.5 4.16683 13.4333 4.16683 14.5833V15.8333H15.0002V14.5833ZM9.5835 4.16663C10.357 4.16663 11.0989 4.47392 11.6459 5.0209C12.1929 5.56788 12.5002 6.30974 12.5002 7.08329C12.5002 7.85684 12.1929 8.59871 11.6459 9.14569C11.0989 9.69267 10.357 9.99996 9.5835 9.99996C8.80995 9.99996 8.06808 9.69267 7.5211 9.14569C6.97412 8.59871 6.66683 7.85684 6.66683 7.08329C6.66683 6.30974 6.97412 5.56788 7.5211 5.0209C8.06808 4.47392 8.80995 4.16663 9.5835 4.16663ZM9.5835 4.99996C9.03096 4.99996 8.50106 5.21945 8.11036 5.61015C7.71966 6.00085 7.50016 6.53076 7.50016 7.08329C7.50016 7.63583 7.71966 8.16573 8.11036 8.55643C8.50106 8.94713 9.03096 9.16663 9.5835 9.16663C10.136 9.16663 10.6659 8.94713 11.0566 8.55643C11.4473 8.16573 11.6668 7.63583 11.6668 7.08329C11.6668 6.53076 11.4473 6.00085 11.0566 5.61015C10.6659 5.21945 10.136 4.99996 9.5835 4.99996Z" fill="#818181"/>
</svg>
