<svg width="20" height="20" viewBox="0 0 20 20" fill="none" xmlns="http://www.w3.org/2000/svg">
<g id="mdi:comments" clip-path="url(#clip0_249_4540)">
<path id="Vector" d="M9.99967 19.1667C9.77866 19.1667 9.5667 19.0789 9.41042 18.9226C9.25414 18.7663 9.16634 18.5543 9.16634 18.3333V15.8333H5.83301C5.39098 15.8333 4.96706 15.6577 4.6545 15.3452C4.34194 15.0326 4.16634 14.6087 4.16634 14.1667V5.83333C4.16634 5.3913 4.34194 4.96738 4.6545 4.65482C4.96706 4.34226 5.39098 4.16667 5.83301 4.16667H17.4997C17.9417 4.16667 18.3656 4.34226 18.6782 4.65482C18.9907 4.96738 19.1663 5.3913 19.1663 5.83333V14.1667C19.1663 14.6087 18.9907 15.0326 18.6782 15.3452C18.3656 15.6577 17.9417 15.8333 17.4997 15.8333H14.083L10.9997 18.925C10.833 19.075 10.633 19.1667 10.4163 19.1667H9.99967ZM2.49967 12.5H0.833008V2.5C0.833008 2.05797 1.0086 1.63405 1.32116 1.32149C1.63372 1.00893 2.05765 0.833332 2.49967 0.833332H15.833V2.5H2.49967V12.5Z" fill="#30511F"/>
</g>
<defs>
<clipPath id="clip0_249_4540">
<rect width="20" height="20" fill="white"/>
</clipPath>
</defs>
</svg>
