<svg width="360" height="361" viewBox="0 0 360 361" fill="none" xmlns="http://www.w3.org/2000/svg">
<path d="M180.414 256.795L181.967 358.012C181.984 359.117 181.102 360.026 179.998 360.043C178.893 360.06 177.984 359.178 177.967 358.074C177.967 358.056 177.967 358.03 177.967 358.013L179.52 256.796C179.524 256.549 179.727 256.352 179.974 256.356C180.216 256.359 180.41 256.555 180.414 256.795Z" fill="#25A870"/>
<path d="M179.967 268.165L0 275.686C0 275.686 16.768 279.353 24.639 280.18C32.51 281.007 23.058 282.302 27.087 283.418C31.116 284.534 42.752 280.151 40.809 282.845C38.866 285.538 36.359 289.069 43.027 286.735C49.695 284.401 55.548 283.043 53.201 286.31C50.854 289.577 52.482 289.595 59.749 287.235C67.016 284.876 61.438 288.706 61.848 290.316C62.258 291.926 70.013 288.947 73.917 288.099C77.821 287.251 74.501 289.787 73.793 291.273C73.084 292.759 80.038 291.098 83.133 289.341C86.228 287.584 86.048 289.425 84.676 291.435C83.304 293.445 90.104 292.219 93.926 289.404C97.748 286.589 97.314 288.492 96.544 290.579C95.774 292.666 102.358 290.336 106.283 287.945C110.208 285.554 110.429 286.744 109.596 289.348C108.763 291.952 115.801 288.232 119.627 285.503C123.453 282.774 123.699 284.562 122.57 286.236C121.441 287.91 128.447 284.941 132.458 282.547C136.469 280.153 136.848 281.529 136.413 283.431C136.027 285.12 141.054 281.781 145.471 278.856C149.888 275.931 148.187 279.802 147.796 280.704C147.405 281.606 149.625 281.427 154.872 277.868C160.119 274.309 161.21 275.822 159.489 277.692C157.769 279.563 161.646 278.566 179.967 268.165Z" fill="#52CA97"/>
<path d="M179.967 268.165L0 275.686C0 275.686 16.404 270.633 24.178 269.151C31.953 267.67 22.425 267.169 26.347 265.72C30.269 264.271 42.23 267.668 40.069 265.147C37.908 262.625 35.115 259.316 41.955 261.086C48.795 262.856 54.74 263.72 52.129 260.661C49.517 257.601 51.138 257.448 58.577 259.193C66.015 260.938 60.137 257.586 60.411 255.947C60.685 254.308 68.661 256.63 72.623 257.15C76.584 257.67 73.064 255.419 72.234 253.997C71.404 252.575 78.472 253.651 81.703 255.143C84.934 256.635 84.601 254.816 83.066 252.928C81.531 251.04 88.41 251.694 92.454 254.18C96.498 256.666 95.906 254.807 94.965 252.79C94.024 250.774 100.779 252.547 104.89 254.602C109.001 256.657 109.122 255.453 108.075 252.927C107.028 250.401 114.352 253.521 118.392 255.922C122.432 258.323 122.528 256.52 121.263 254.946C119.998 253.372 127.227 255.746 131.424 257.797C135.621 259.848 135.883 258.446 135.292 256.586C134.767 254.935 140.055 257.843 144.701 260.389C149.347 262.935 147.329 259.219 146.864 258.354C146.4 257.488 148.626 257.481 154.152 260.59C159.678 263.699 160.638 262.1 158.768 260.38C156.895 258.659 160.842 259.33 179.967 268.165Z" fill="#25A870"/>
<path d="M0 275.687C7.489 275.149 14.984 274.738 22.476 274.26L44.96 273.042C59.95 272.251 74.948 271.639 89.942 270.929C104.943 270.38 119.939 269.746 134.943 269.278L157.451 268.617C164.957 268.47 172.459 268.253 179.967 268.167C172.478 268.707 164.983 269.118 157.492 269.597L135.008 270.816C120.017 271.602 105.02 272.221 90.026 272.926C75.025 273.469 60.029 274.111 45.024 274.573L22.516 275.235C15.01 275.382 7.508 275.598 0 275.687Z" fill="#25A870"/>
<path d="M179.967 268.165L105.5 337.285C105.5 337.285 114.038 332.719 117.718 330.192C121.398 327.665 117.816 331.681 119.954 330.685C122.092 329.689 125.479 323.548 125.632 325.415C125.784 327.282 126.001 329.715 128.008 326.272C130.015 322.829 132.029 320.103 132.218 322.364C132.407 324.625 133.112 324.037 135.366 320.364C137.62 316.691 136.629 320.377 137.395 320.918C138.161 321.459 140.397 317.341 141.762 315.548C143.127 313.755 142.631 316.058 142.871 316.955C143.111 317.852 145.486 314.593 146.171 312.706C146.856 310.819 147.453 311.675 147.6 313.039C147.747 314.404 150.216 311.388 150.825 308.781C151.434 306.174 151.945 307.149 152.379 308.327C152.813 309.504 154.785 306.094 155.594 303.631C156.403 301.168 156.933 301.598 157.529 303.02C158.125 304.442 159.783 300.269 160.425 297.697C161.067 295.125 161.828 295.802 161.956 296.934C162.085 298.066 164.004 294.227 164.848 291.731C165.692 289.235 166.359 289.687 166.869 290.662C167.322 291.528 168.256 288.255 169.081 285.382C169.905 282.51 170.593 284.794 170.755 285.323C170.918 285.853 171.804 284.964 172.753 281.515C173.701 278.067 174.723 278.317 174.67 279.749C174.615 281.183 175.914 279.336 179.967 268.165Z" fill="#52CA97"/>
<path d="M179.967 268.165L105.5 337.285C105.5 337.285 110.688 329.111 113.482 325.629C116.276 322.147 112.004 325.42 113.157 323.363C114.309 321.305 120.685 318.384 118.835 318.093C116.985 317.802 114.574 317.405 118.157 315.66C121.74 313.915 124.608 312.109 122.367 311.752C120.126 311.395 120.765 310.736 124.596 308.761C128.426 306.786 124.677 307.5 124.195 306.697C123.713 305.894 127.985 303.969 129.875 302.742C131.765 301.515 129.431 301.837 128.554 301.532C127.677 301.226 131.104 299.1 133.036 298.557C134.969 298.014 134.16 297.356 132.81 297.107C131.46 296.858 134.651 294.621 137.296 294.207C139.941 293.793 139.007 293.212 137.865 292.691C136.723 292.17 140.271 290.458 142.787 289.835C145.303 289.211 144.914 288.651 143.54 287.95C142.166 287.25 146.451 285.907 149.063 285.458C151.675 285.009 151.057 284.2 149.937 283.988C148.818 283.776 152.789 282.147 155.341 281.491C157.893 280.835 157.492 280.137 156.557 279.555C155.727 279.039 159.061 278.35 161.987 277.742C164.913 277.134 162.686 276.278 162.17 276.077C161.654 275.876 162.606 275.057 166.116 274.368C169.626 273.679 169.452 272.641 168.02 272.588C166.587 272.534 168.526 271.377 179.967 268.165Z" fill="#25A870"/>
<path d="M105.5 337.285C108.488 334.281 111.541 331.348 114.56 328.377L123.726 319.584C129.848 313.733 136.061 307.982 142.224 302.176C148.47 296.459 154.671 290.695 160.958 285.022L170.409 276.535C173.597 273.746 176.749 270.92 179.967 268.164C176.98 271.169 173.927 274.102 170.909 277.074L161.743 285.867C155.619 291.715 149.409 297.47 143.244 303.273C136.996 308.987 130.798 314.755 124.508 320.425L115.058 328.912C111.871 331.703 108.718 334.529 105.5 337.285Z" fill="#25A870"/>
<path d="M179.967 268.165L254.434 337.285C254.434 337.285 245.896 332.719 242.216 330.192C238.536 327.665 242.118 331.681 239.98 330.685C237.842 329.689 234.455 323.548 234.302 325.415C234.15 327.282 233.933 329.715 231.926 326.272C229.919 322.829 227.905 320.103 227.716 322.364C227.527 324.625 226.822 324.037 224.568 320.364C222.314 316.691 223.305 320.377 222.539 320.918C221.773 321.459 219.537 317.341 218.172 315.548C216.807 313.755 217.303 316.058 217.063 316.955C216.823 317.852 214.448 314.593 213.763 312.706C213.078 310.819 212.481 311.675 212.334 313.039C212.187 314.404 209.718 311.388 209.109 308.781C208.5 306.174 207.989 307.149 207.555 308.327C207.121 309.504 205.149 306.094 204.34 303.631C203.531 301.168 203.001 301.598 202.405 303.02C201.809 304.442 200.151 300.269 199.509 297.697C198.867 295.125 198.106 295.802 197.978 296.934C197.849 298.066 195.93 294.227 195.086 291.731C194.242 289.235 193.575 289.687 193.065 290.662C192.612 291.528 191.678 288.255 190.853 285.382C190.029 282.51 189.341 284.794 189.179 285.323C189.016 285.853 188.13 284.964 187.181 281.515C186.233 278.067 185.211 278.317 185.264 279.749C185.319 281.183 184.02 279.336 179.967 268.165Z" fill="#25A870"/>
<path d="M179.967 268.165L254.434 337.285C254.434 337.285 249.246 329.111 246.452 325.629C243.658 322.147 247.93 325.42 246.777 323.363C245.625 321.305 239.249 318.384 241.099 318.093C242.949 317.802 245.36 317.405 241.777 315.66C238.194 313.915 235.326 312.109 237.567 311.752C239.808 311.395 239.169 310.736 235.338 308.761C231.508 306.786 235.257 307.5 235.739 306.697C236.221 305.894 231.949 303.969 230.059 302.742C228.169 301.515 230.503 301.837 231.38 301.532C232.257 301.226 228.83 299.1 226.898 298.557C224.965 298.014 225.774 297.356 227.124 297.107C228.474 296.858 225.283 294.621 222.638 294.207C219.993 293.793 220.927 293.212 222.069 292.691C223.211 292.17 219.663 290.458 217.147 289.835C214.631 289.211 215.02 288.651 216.394 287.95C217.768 287.25 213.483 285.907 210.871 285.458C208.259 285.009 208.877 284.2 209.997 283.988C211.116 283.776 207.145 282.147 204.593 281.491C202.041 280.835 202.442 280.137 203.377 279.555C204.207 279.039 200.873 278.35 197.947 277.742C195.021 277.134 197.248 276.278 197.764 276.077C198.28 275.876 197.328 275.057 193.818 274.368C190.308 273.679 190.482 272.641 191.914 272.588C193.347 272.534 191.408 271.377 179.967 268.165Z" fill="#52CA97"/>
<path d="M254.434 337.285C251.216 334.529 248.064 331.702 244.877 328.913L235.427 320.426C229.137 314.757 222.94 308.988 216.691 303.274C210.525 297.471 204.316 291.715 198.192 285.868L189.026 277.075C186.008 274.104 182.955 271.17 179.968 268.165C183.186 270.92 186.339 273.747 189.526 276.536L198.977 285.023C205.264 290.695 211.465 296.46 217.711 302.177C223.874 307.983 230.087 313.735 236.209 319.585L245.375 328.378C248.393 331.348 251.446 334.282 254.434 337.285Z" fill="#25A870"/>
<path d="M179.967 268.165L359.934 275.686C359.934 275.686 343.166 279.353 335.295 280.18C327.424 281.007 336.876 282.302 332.847 283.418C328.818 284.534 317.182 280.151 319.125 282.845C321.068 285.538 323.575 289.069 316.907 286.735C310.239 284.401 304.386 283.043 306.733 286.31C309.08 289.577 307.452 289.595 300.185 287.235C292.918 284.876 298.496 288.706 298.086 290.316C297.676 291.926 289.921 288.947 286.017 288.099C282.113 287.251 285.433 289.787 286.141 291.273C286.85 292.759 279.896 291.098 276.801 289.341C273.706 287.584 273.886 289.425 275.258 291.435C276.63 293.445 269.83 292.219 266.008 289.404C262.186 286.589 262.62 288.492 263.39 290.579C264.16 292.666 257.576 290.336 253.651 287.945C249.726 285.554 249.505 286.744 250.338 289.348C251.171 291.952 244.133 288.232 240.307 285.503C236.481 282.774 236.235 284.562 237.364 286.236C238.493 287.91 231.487 284.941 227.476 282.547C223.465 280.153 223.086 281.529 223.521 283.431C223.907 285.12 218.88 281.781 214.463 278.856C210.046 275.931 211.747 279.802 212.138 280.704C212.529 281.606 210.309 281.427 205.062 277.868C199.815 274.309 198.724 275.822 200.445 277.692C202.165 279.563 198.288 278.566 179.967 268.165Z" fill="#25A870"/>
<path d="M179.967 268.165L359.934 275.686C359.934 275.686 343.53 270.633 335.756 269.151C327.981 267.67 337.509 267.169 333.587 265.72C329.665 264.271 317.704 267.668 319.865 265.147C322.026 262.625 324.819 259.316 317.979 261.086C311.139 262.856 305.194 263.72 307.805 260.661C310.417 257.601 308.796 257.448 301.357 259.193C293.919 260.938 299.797 257.586 299.523 255.947C299.249 254.308 291.273 256.63 287.311 257.15C283.35 257.67 286.87 255.419 287.7 253.997C288.53 252.575 281.462 253.651 278.231 255.143C275 256.635 275.333 254.816 276.868 252.928C278.403 251.04 271.524 251.694 267.48 254.18C263.436 256.666 264.028 254.807 264.969 252.79C265.91 250.774 259.155 252.547 255.044 254.602C250.933 256.657 250.812 255.453 251.859 252.927C252.906 250.401 245.582 253.521 241.542 255.922C237.502 258.323 237.406 256.52 238.671 254.946C239.936 253.372 232.707 255.746 228.51 257.797C224.313 259.848 224.051 258.446 224.642 256.586C225.167 254.935 219.879 257.843 215.233 260.389C210.587 262.935 212.605 259.219 213.07 258.354C213.534 257.488 211.308 257.481 205.782 260.59C200.256 263.699 199.296 262.1 201.166 260.38C203.039 258.659 199.092 259.33 179.967 268.165Z" fill="#52CA97"/>
<path d="M359.934 275.687C352.426 275.599 344.923 275.382 337.418 275.234L314.91 274.572C299.906 274.11 284.909 273.468 269.908 272.925C254.914 272.22 239.916 271.601 224.926 270.815L202.442 269.596C194.95 269.117 187.456 268.706 179.967 268.166C187.475 268.253 194.978 268.469 202.483 268.616L224.991 269.277C239.995 269.745 254.992 270.379 269.992 270.928C284.986 271.638 299.984 272.25 314.974 273.041L337.458 274.259C344.951 274.738 352.445 275.148 359.934 275.687Z" fill="#25A870"/>
<path d="M179.967 268.165L356.841 159.684C356.841 159.684 337.912 165.396 329.528 168.978C321.144 172.559 329.93 165.956 325.249 167.092C320.569 168.228 311.318 179.163 311.763 175.363C312.208 171.563 312.751 166.605 307.35 172.693C301.949 178.781 296.821 183.429 297.351 178.826C297.881 174.223 296.233 175.118 290.244 181.566C284.255 188.015 287.72 181.033 286.405 179.642C285.09 178.252 278.957 185.598 275.504 188.64C272.051 191.682 273.969 187.269 273.849 185.376C273.729 183.483 267.664 189.054 265.534 192.557C263.404 196.06 262.553 194.107 262.807 191.316C263.06 188.524 256.905 193.571 254.638 198.547C252.37 203.522 251.741 201.365 251.344 198.833C250.947 196.301 245.63 202.337 243.021 206.944C240.412 211.551 239.522 210.478 238.9 207.39C238.278 204.302 233.282 211.992 230.962 216.884C228.643 221.775 227.393 220.114 227.59 217.796C227.787 215.478 222.403 222.394 219.709 227.052C217.016 231.71 215.863 230.538 215.234 228.38C214.675 226.464 211.489 232.643 208.684 238.063C205.879 243.483 205.42 238.634 205.308 237.508C205.195 236.382 203.062 237.806 199.779 244.329C196.495 250.853 194.549 249.942 195.231 247.095C195.913 244.249 192.571 247.426 179.967 268.165Z" fill="#52CA97"/>
<path d="M179.967 268.165L356.841 159.684C356.841 159.684 343.168 173.967 336.176 179.817C329.183 185.667 339.051 180.829 335.917 184.485C332.783 188.142 318.842 191.43 322.431 192.756C326.019 194.082 330.686 195.845 322.811 197.9C314.936 199.955 308.468 202.418 312.812 204.033C317.156 205.647 315.611 206.711 307.148 209.126C298.685 211.541 306.479 211.618 307.122 213.42C307.765 215.222 298.437 217.359 294.16 219.057C289.883 220.755 294.687 221.047 296.319 222.011C297.951 222.976 290.237 225.857 286.149 226.167C282.061 226.477 283.416 228.121 286.019 229.161C288.622 230.201 281.333 233.399 275.871 233.165C270.408 232.931 272.046 234.47 274.123 235.971C276.2 237.472 268.409 239.475 263.12 239.713C257.831 239.95 258.384 241.23 260.855 243.184C263.326 245.138 254.206 246.106 248.795 245.956C243.384 245.806 244.298 247.673 246.453 248.548C248.608 249.423 240.003 251.087 234.63 251.377C229.257 251.666 229.779 253.225 231.417 254.764C232.871 256.131 225.92 256.17 219.817 256.213C213.715 256.256 217.829 258.863 218.782 259.474C219.735 260.085 217.499 261.341 210.195 261.31C202.892 261.28 202.821 263.428 205.668 264.11C208.513 264.793 204.166 266.332 179.967 268.165Z" fill="#25A870"/>
<path d="M356.841 159.684C349.589 164.396 342.27 168.999 334.987 173.66L313.023 187.457C298.37 196.637 283.622 205.665 268.926 214.776C254.146 223.749 239.41 232.796 224.588 241.701L202.333 255.023C194.876 259.401 187.456 263.839 179.967 268.165C187.218 263.452 194.537 258.849 201.82 254.187L223.783 240.389C238.439 231.213 253.183 222.18 267.881 213.073C282.664 204.104 297.396 195.051 312.221 186.151L334.476 172.828C341.933 168.449 349.353 164.012 356.841 159.684Z" fill="#25A870"/>
<path d="M179.967 268.165L3.09277 159.684C3.09277 159.684 22.0218 165.396 30.4058 168.978C38.7898 172.559 30.0038 165.956 34.6848 167.092C39.3648 168.228 48.6158 179.163 48.1708 175.363C47.7258 171.563 47.1828 166.605 52.5838 172.693C57.9848 178.781 63.1128 183.429 62.5828 178.826C62.0528 174.223 63.7008 175.118 69.6898 181.566C75.6788 188.015 72.2138 181.033 73.5288 179.642C74.8438 178.252 80.9768 185.598 84.4298 188.64C87.8828 191.682 85.9648 187.269 86.0848 185.376C86.2048 183.483 92.2698 189.054 94.3998 192.557C96.5298 196.06 97.3808 194.107 97.1268 191.316C96.8738 188.524 103.029 193.571 105.296 198.547C107.564 203.522 108.193 201.365 108.59 198.833C108.987 196.301 114.304 202.337 116.913 206.944C119.522 211.551 120.412 210.478 121.034 207.39C121.656 204.302 126.652 211.992 128.972 216.884C131.291 221.775 132.541 220.114 132.344 217.796C132.147 215.478 137.531 222.394 140.225 227.052C142.918 231.71 144.071 230.538 144.7 228.38C145.259 226.464 148.445 232.643 151.25 238.063C154.055 243.483 154.514 238.634 154.626 237.508C154.739 236.382 156.872 237.806 160.155 244.329C163.439 250.853 165.385 249.942 164.703 247.095C164.021 244.249 167.363 247.426 179.967 268.165Z" fill="#25A870"/>
<path d="M179.967 268.165L3.09277 159.684C3.09277 159.684 16.7658 173.967 23.7578 179.817C30.7508 185.667 20.8828 180.829 24.0168 184.485C27.1508 188.142 41.0918 191.43 37.5028 192.756C33.9148 194.082 29.2478 195.845 37.1228 197.9C44.9978 199.955 51.4658 202.418 47.1218 204.033C42.7778 205.647 44.3228 206.711 52.7858 209.126C61.2488 211.541 53.4548 211.618 52.8118 213.42C52.1688 215.222 61.4968 217.359 65.7738 219.057C70.0508 220.755 65.2468 221.047 63.6148 222.011C61.9828 222.976 69.6968 225.857 73.7848 226.167C77.8728 226.477 76.5178 228.121 73.9148 229.161C71.3118 230.201 78.6008 233.399 84.0628 233.165C89.5258 232.931 87.8878 234.47 85.8108 235.971C83.7338 237.472 91.5248 239.475 96.8138 239.713C102.103 239.95 101.55 241.23 99.0788 243.184C96.6078 245.138 105.728 246.106 111.139 245.956C116.55 245.806 115.636 247.673 113.481 248.548C111.326 249.423 119.931 251.087 125.304 251.377C130.677 251.666 130.155 253.225 128.517 254.764C127.063 256.131 134.014 256.17 140.117 256.213C146.219 256.256 142.105 258.863 141.152 259.474C140.199 260.085 142.435 261.341 149.739 261.31C157.042 261.28 157.113 263.428 154.266 264.11C151.421 264.793 155.768 266.332 179.967 268.165Z" fill="#52CA97"/>
<path d="M3.09277 159.684C10.5808 164.012 18.0008 168.449 25.4568 172.829L47.7118 186.152C62.5378 195.052 77.2688 204.105 92.0518 213.074C106.751 222.181 121.494 231.214 136.15 240.39L158.113 254.188C165.396 258.85 172.715 263.453 179.966 268.166C172.478 263.839 165.057 259.402 157.6 255.024L135.345 241.702C120.522 232.798 105.787 223.751 91.0068 214.777C76.3108 205.666 61.5638 196.638 46.9098 187.458L24.9458 173.661C17.6638 168.999 10.3448 164.396 3.09277 159.684Z" fill="#25A870"/>
<path d="M179.967 268.165L60.4839 56.61C60.4839 56.61 76.6209 73.212 83.1719 81.642C89.7219 90.072 84.4769 78.32 88.6239 82.142C92.7709 85.964 96.0309 102.416 97.7339 98.272C99.4369 94.128 101.697 88.743 103.77 98.045C105.842 107.347 108.452 115.019 110.525 110.005C112.597 104.99 113.776 106.843 116.246 116.848C118.715 126.853 119.133 117.736 121.27 117.059C123.407 116.382 125.513 127.388 127.32 132.465C129.127 137.542 129.671 131.933 130.868 130.063C132.066 128.194 135.112 137.343 135.303 142.14C135.494 146.937 137.474 145.421 138.801 142.418C140.127 139.415 143.563 148.08 143.058 154.462C142.553 160.845 144.424 158.993 146.268 156.626C148.112 154.259 150.128 163.46 150.183 169.659C150.238 175.858 151.758 175.265 154.149 172.456C156.54 169.648 157.288 180.36 156.884 186.686C156.48 193.012 158.704 192.021 159.819 189.535C160.934 187.05 162.519 197.19 162.63 203.49C162.742 209.79 164.588 209.244 166.458 207.393C168.119 205.749 167.871 213.885 167.664 221.028C167.456 228.171 170.681 223.466 171.436 222.377C172.191 221.288 173.566 223.958 173.223 232.503C172.879 241.048 175.39 241.221 176.309 237.919C177.228 234.617 178.843 239.77 179.967 268.165Z" fill="#25A870"/>
<path d="M179.967 268.165L60.4839 56.61C60.4839 56.61 66.3699 79.002 70.2069 88.964C74.0439 98.926 66.6879 88.366 67.8199 93.891C68.9519 99.416 81.3579 110.702 76.9299 110.021C72.5019 109.34 66.7229 108.495 73.6189 115.072C80.5149 121.649 85.7379 127.846 80.3739 127.032C75.0099 126.218 75.9869 128.184 83.2809 135.465C90.5749 142.746 82.5499 138.396 80.8679 139.877C79.1859 141.357 87.5229 148.844 90.9379 153.013C94.3529 157.182 89.2689 154.751 87.0489 154.812C84.8289 154.873 91.0919 162.205 95.1019 164.845C99.1119 167.485 96.7909 168.398 93.5339 167.984C90.2779 167.57 95.9239 174.985 101.651 177.849C107.378 180.712 104.826 181.358 101.846 181.715C98.8659 182.072 105.706 188.549 110.987 191.797C116.268 195.045 114.974 196.04 111.335 196.638C107.696 197.235 116.484 203.407 122.11 206.327C127.736 209.247 125.739 210.64 123.035 210.312C120.331 209.983 128.197 216.576 133.534 219.925C138.872 223.273 137.451 224.573 134.9 225.218C132.634 225.791 139.73 229.781 145.955 233.291C152.18 236.801 146.485 237.134 145.163 237.218C143.84 237.302 145.417 239.858 152.912 243.976C160.408 248.094 159.259 250.333 155.957 249.415C152.653 248.497 156.23 252.541 179.967 268.165Z" fill="#52CA97"/>
<path d="M60.4839 56.61C65.6589 65.314 70.7219 74.081 75.8439 82.815L91.0219 109.122C101.122 126.671 111.066 144.308 121.096 161.896C130.985 179.564 140.949 197.19 150.767 214.898L165.459 241.48C170.293 250.376 175.187 259.239 179.968 268.165C174.792 259.462 169.729 250.695 164.606 241.962L149.428 215.655C139.332 198.104 129.382 180.47 119.357 162.879C109.473 145.208 99.5029 127.586 89.6889 109.876L74.9959 83.295C70.1599 74.399 65.2659 65.536 60.4839 56.61Z" fill="#25A870"/>
<path d="M179.967 268.165L299.45 56.61C299.45 56.61 283.313 73.212 276.762 81.642C270.212 90.072 275.457 78.32 271.31 82.142C267.163 85.964 263.903 102.416 262.2 98.272C260.497 94.128 258.237 88.743 256.164 98.045C254.092 107.347 251.482 115.019 249.409 110.005C247.337 104.99 246.158 106.843 243.688 116.848C241.219 126.853 240.801 117.736 238.664 117.059C236.527 116.382 234.421 127.388 232.614 132.465C230.807 137.542 230.263 131.933 229.066 130.063C227.868 128.194 224.822 137.343 224.631 142.14C224.44 146.937 222.46 145.421 221.133 142.418C219.807 139.415 216.371 148.08 216.876 154.462C217.381 160.845 215.51 158.993 213.666 156.626C211.822 154.259 209.806 163.46 209.751 169.659C209.696 175.858 208.176 175.265 205.785 172.456C203.394 169.648 202.646 180.36 203.05 186.686C203.454 193.012 201.23 192.021 200.115 189.535C199 187.05 197.415 197.19 197.304 203.49C197.192 209.79 195.346 209.244 193.476 207.393C191.815 205.749 192.063 213.885 192.27 221.028C192.478 228.171 189.253 223.466 188.498 222.377C187.743 221.288 186.368 223.958 186.711 232.503C187.055 241.048 184.544 241.221 183.625 237.919C182.706 234.617 181.091 239.77 179.967 268.165Z" fill="#52CA97"/>
<path d="M179.967 268.165L299.45 56.61C299.45 56.61 293.564 79.002 289.727 88.964C285.89 98.926 293.246 88.366 292.114 93.891C290.982 99.416 278.576 110.702 283.004 110.021C287.432 109.34 293.211 108.495 286.315 115.072C279.419 121.649 274.196 127.846 279.56 127.032C284.924 126.218 283.947 128.184 276.653 135.465C269.359 142.746 277.384 138.396 279.066 139.877C280.748 141.357 272.411 148.844 268.996 153.013C265.581 157.182 270.665 154.751 272.885 154.812C275.105 154.873 268.842 162.205 264.832 164.845C260.822 167.485 263.143 168.398 266.4 167.984C269.656 167.57 264.01 174.985 258.283 177.849C252.556 180.712 255.108 181.358 258.088 181.715C261.068 182.072 254.228 188.549 248.947 191.797C243.666 195.045 244.96 196.04 248.599 196.638C252.238 197.235 243.45 203.407 237.824 206.327C232.198 209.247 234.195 210.64 236.899 210.312C239.603 209.983 231.737 216.576 226.4 219.925C221.062 223.273 222.483 224.573 225.034 225.218C227.3 225.791 220.204 229.781 213.979 233.291C207.754 236.801 213.449 237.134 214.771 237.218C216.094 237.302 214.517 239.858 207.022 243.976C199.526 248.094 200.675 250.333 203.977 249.415C207.281 248.497 203.704 252.541 179.967 268.165Z" fill="#25A870"/>
<path d="M299.45 56.61C294.668 65.536 289.774 74.398 284.939 83.294L270.246 109.875C260.432 127.586 250.462 145.208 240.578 162.878C230.553 180.469 220.603 198.103 210.507 215.654L195.329 241.961C190.206 250.694 185.143 259.461 179.967 268.164C184.748 259.238 189.642 250.375 194.476 241.479L209.168 214.897C218.986 197.189 228.95 179.563 238.839 161.895C248.869 144.307 258.812 126.67 268.913 109.121L284.091 82.814C289.212 74.081 294.275 65.314 299.45 56.61Z" fill="#25A870"/>
<path d="M179.967 268.165V0C179.967 0 173.47 24.715 171.75 36.371C170.03 48.028 168.693 33.887 166.782 39.811C164.871 45.735 170.668 63.315 166.782 60.258C162.896 57.201 157.801 53.251 160.858 63.315C163.915 73.379 165.572 82.169 160.858 78.475C156.144 74.781 156.017 77.201 159.074 88.157C162.131 99.113 156.781 90.577 154.36 91.087C151.939 91.597 155.889 103.317 156.908 109.177C157.927 115.037 154.36 109.941 152.194 108.795C150.028 107.648 152.067 118.095 154.487 122.808C156.907 127.522 154.181 127.139 151.277 124.974C148.372 122.808 149.774 133 153.723 138.86C157.672 144.72 154.87 143.956 151.812 142.682C148.755 141.408 151.812 151.345 155.124 157.332C158.436 163.319 156.653 163.574 152.831 162.173C149.009 160.772 154.105 171.473 157.927 177.333C161.749 183.193 159.074 183.448 156.653 181.664C154.233 179.88 158.214 190.486 161.526 196.601C164.838 202.716 162.768 203.194 159.965 202.429C157.476 201.75 162.131 209.436 166.207 216.188C170.284 222.94 164.631 220.169 163.314 219.532C161.997 218.895 162.125 222.207 167.093 230.233C172.061 238.259 169.742 239.788 167.067 237.112C164.393 234.438 165.635 240.266 179.967 268.165Z" fill="#52CA97"/>
<path d="M179.967 268.165V0C179.967 0 186.464 24.715 188.184 36.371C189.904 48.028 191.241 33.887 193.152 39.811C195.063 45.735 189.266 63.315 193.152 60.258C197.038 57.201 202.133 53.251 199.076 63.315C196.019 73.379 194.362 82.169 199.076 78.475C203.79 74.781 203.917 77.201 200.86 88.157C197.803 99.113 203.153 90.577 205.574 91.087C207.995 91.597 204.045 103.317 203.026 109.177C202.007 115.037 205.574 109.941 207.74 108.795C209.906 107.648 207.867 118.095 205.447 122.808C203.027 127.522 205.753 127.139 208.657 124.974C211.562 122.808 210.16 133 206.211 138.86C202.262 144.72 205.064 143.956 208.122 142.682C211.179 141.408 208.122 151.345 204.81 157.332C201.498 163.319 203.281 163.574 207.103 162.173C210.925 160.772 205.829 171.473 202.007 177.333C198.185 183.193 200.86 183.448 203.281 181.664C205.701 179.88 201.72 190.486 198.408 196.601C195.096 202.716 197.166 203.194 199.969 202.429C202.458 201.75 197.803 209.436 193.727 216.188C189.65 222.94 195.303 220.169 196.62 219.532C197.937 218.895 197.809 222.207 192.841 230.233C187.873 238.259 190.192 239.788 192.867 237.112C195.541 234.438 194.299 240.266 179.967 268.165Z" fill="#25A870"/>
<path d="M179.967 0C180.192 11.174 180.29 22.347 180.454 33.521L180.732 67.042C180.897 89.389 180.882 111.736 180.965 134.083C180.887 156.43 180.895 178.777 180.735 201.124L180.456 234.645C180.29 245.819 180.193 256.992 179.966 268.166C179.739 256.992 179.642 245.819 179.476 234.645L179.197 201.124C179.038 178.777 179.046 156.43 178.967 134.083C179.051 111.736 179.035 89.389 179.2 67.042L179.478 33.521C179.644 22.347 179.742 11.174 179.967 0Z" fill="#25A870"/>
</svg>
