<svg xmlns="http://www.w3.org/2000/svg" xmlns:xlink="http://www.w3.org/1999/xlink" viewBox="0,0,256,256" width="70px" height="70px"><g transform="translate(58.88,58.88) scale(0.54,0.54)"><g fill="#ffffff" fill-rule="nonzero" stroke="none" stroke-width="1" stroke-linecap="butt" stroke-linejoin="miter" stroke-miterlimit="10" stroke-dasharray="" stroke-dashoffset="0" font-family="none" font-weight="none" font-size="none" text-anchor="none" style="mix-blend-mode: normal"><g transform="translate(-37.33388,38.4004) scale(5.33333,5.33333)"><path d="M39.48633,6.97852c-0.39614,0.00936 -0.77249,0.17506 -1.04687,0.46094l-14.43945,14.43945l-14.43945,-14.43945c-0.28248,-0.2909 -0.67069,-0.45506 -1.07617,-0.45508c-0.61064,0.00015 -1.16026,0.37042 -1.38978,0.93629c-0.22952,0.56587 -0.09314,1.21439 0.34486,1.63988l14.43945,14.43945l-14.43945,14.43945c-0.39185,0.37623 -0.54969,0.9349 -0.41265,1.46055c0.13704,0.52565 0.54754,0.93616 1.07319,1.07319c0.52565,0.13704 1.08432,-0.02081 1.46055,-0.41265l14.43945,-14.43945l14.43945,14.43945c0.37623,0.39185 0.9349,0.54969 1.46055,0.41265c0.52565,-0.13704 0.93616,-0.54754 1.07319,-1.07319c0.13704,-0.52565 -0.0208,-1.08432 -0.41265,-1.46055l-14.43945,-14.43945l14.43945,-14.43945c0.44646,-0.42851 0.58398,-1.08719 0.34628,-1.65854c-0.2377,-0.57135 -0.80184,-0.93811 -1.4205,-0.92349z"></path></g></g><g fill="#fffbfb" fill-rule="nonzero" stroke="none" stroke-width="1" stroke-linecap="butt" stroke-linejoin="miter" stroke-miterlimit="10" stroke-dasharray="" stroke-dashoffset="0" font-family="none" font-weight="none" font-size="none" text-anchor="none" style="mix-blend-mode: normal"><g><path d="M180.68667,22.71v0c2.22,0 4.02333,-0.61 5.41,-1.83c1.39333,-1.22667 2.11667,-2.85333 2.17,-4.88v0h11.29c-0.02667,3.05333 -0.86,5.85333 -2.5,8.4c-1.64,2.54 -3.88333,4.51 -6.73,5.91c-2.84667,1.40667 -5.99333,2.11 -9.44,2.11v0c-6.44,0 -11.52333,-2.05 -15.25,-6.15c-3.72,-4.09333 -5.58,-9.75333 -5.58,-16.98v0v-0.79c0,-6.94667 1.84667,-12.48667 5.54,-16.62c3.69333,-4.14 8.76333,-6.21 15.21,-6.21v0c5.64,0 10.16,1.60333 13.56,4.81c3.40667,3.20667 5.13667,7.47667 5.19,12.81v0h-11.29c-0.05333,-2.33333 -0.77667,-4.23 -2.17,-5.69c-1.38667,-1.45333 -3.22,-2.18 -5.5,-2.18v0c-2.80667,0 -4.92333,1.02 -6.35,3.06c-1.43333,2.04 -2.15,5.35333 -2.15,9.94v0v1.25c0,4.64 0.71,7.97333 2.13,10c1.41333,2.02667 3.56667,3.04 6.46,3.04zM219.13667,-32.42v64h-12.08v-64zM227.18667,9.17v-0.54c0,-4.47333 0.86,-8.46 2.58,-11.96c1.72,-3.5 4.2,-6.21 7.44,-8.13c3.23333,-1.91333 6.99,-2.87 11.27,-2.87v0c6.08,0 11.04333,1.86 14.89,5.58c3.84667,3.72 5.99333,8.77667 6.44,15.17v0l0.08,3.08c0,6.92 -1.93,12.47 -5.79,16.65c-3.86,4.18 -9.04,6.27 -15.54,6.27c-6.5,0 -11.68667,-2.08333 -15.56,-6.25c-3.87333,-4.16667 -5.81,-9.83333 -5.81,-17zM239.22667,9.5v0c0,4.28 0.80333,7.55 2.41,9.81c1.61333,2.26667 3.92,3.4 6.92,3.4v0c2.92,0 5.19667,-1.12 6.83,-3.36c1.64,-2.23333 2.46,-5.80667 2.46,-10.72v0c0,-4.2 -0.82,-7.45 -2.46,-9.75c-1.63333,-2.30667 -3.93667,-3.46 -6.91,-3.46v0c-2.94667,0 -5.22667,1.14333 -6.84,3.43c-1.60667,2.29333 -2.41,5.84333 -2.41,10.65zM301.72667,19.13v0c0,-1.47333 -0.73,-2.63333 -2.19,-3.48c-1.46,-0.84667 -3.8,-1.60333 -7.02,-2.27v0c-10.72,-2.25333 -16.08,-6.81 -16.08,-13.67v0c0,-4 1.65667,-7.34 4.97,-10.02c3.32,-2.68 7.66333,-4.02 13.03,-4.02v0c5.72,0 10.29333,1.34667 13.72,4.04c3.43333,2.69333 5.15,6.19333 5.15,10.5v0h-12.04c0,-1.72 -0.55667,-3.14333 -1.67,-4.27c-1.10667,-1.12667 -2.84333,-1.69 -5.21,-1.69v0c-2.02667,0 -3.59333,0.46 -4.7,1.38c-1.11333,0.91333 -1.67,2.08 -1.67,3.5v0c0,1.33333 0.63,2.40667 1.89,3.22c1.26667,0.82 3.4,1.53 6.4,2.13c3,0.6 5.52667,1.27333 7.58,2.02v0c6.36667,2.33333 9.55,6.37667 9.55,12.13v0c0,4.10667 -1.76667,7.43 -5.3,9.97c-3.52667,2.54667 -8.08,3.82 -13.66,3.82v0c-3.78,0 -7.13667,-0.67333 -10.07,-2.02c-2.92667,-1.34667 -5.22333,-3.19667 -6.89,-5.55c-1.66667,-2.34667 -2.5,-4.88 -2.5,-7.6v0h11.42c0.10667,2.14 0.89667,3.78 2.37,4.92c1.47333,1.14 3.44667,1.71 5.92,1.71v0c2.30667,0 4.05,-0.44 5.23,-1.32c1.18,-0.87333 1.77,-2.01667 1.77,-3.43zM341.93667,32.42v0c-6.61333,0 -11.99667,-2.03 -16.15,-6.09c-4.15333,-4.05333 -6.23,-9.45333 -6.23,-16.2v0v-1.17c0,-4.52667 0.87667,-8.57667 2.63,-12.15c1.74667,-3.56667 4.22333,-6.31667 7.43,-8.25c3.21333,-1.92667 6.87333,-2.89 10.98,-2.89v0c6.16667,0 11.02,1.94333 14.56,5.83c3.54667,3.88667 5.32,9.4 5.32,16.54v0v4.92h-28.71c0.38667,2.94667 1.56,5.30667 3.52,7.08c1.96,1.78 4.44,2.67 7.44,2.67v0c4.64,0 8.26333,-1.68 10.87,-5.04v0l5.92,6.62c-1.80667,2.56 -4.25,4.55333 -7.33,5.98c-3.08667,1.43333 -6.50333,2.15 -10.25,2.15zM340.55667,-4.58v0c-2.38667,0 -4.32333,0.80333 -5.81,2.41c-1.48667,1.61333 -2.44,3.92 -2.86,6.92v0h16.75v-0.96c-0.05333,-2.66667 -0.77333,-4.73 -2.16,-6.19c-1.39333,-1.45333 -3.36667,-2.18 -5.92,-2.18z"></path></g></g></g></svg>