<svg width="100" height="20" viewBox="0 0 100 20" fill="none" xmlns="http://www.w3.org/2000/svg">
<path d="M75.3907 18.75C75.2591 18.7505 75.1308 18.7095 75.0239 18.6328L70.0001 14.9906L64.9762 18.6328C64.8689 18.7106 64.7396 18.7523 64.607 18.7519C64.4744 18.7514 64.3454 18.7087 64.2387 18.6301C64.1319 18.5515 64.0529 18.441 64.0131 18.3145C63.9733 18.188 63.9748 18.0521 64.0173 17.9265L65.9766 12.123L60.8985 8.64061C60.7885 8.56526 60.7055 8.45672 60.6616 8.33083C60.6177 8.20494 60.6152 8.06831 60.6544 7.94089C60.6937 7.81348 60.7727 7.70196 60.8799 7.62264C60.987 7.54331 61.1167 7.50034 61.2501 7.49999H67.5149L69.4055 1.68163C69.4463 1.55601 69.5257 1.44652 69.6325 1.36887C69.7394 1.29122 69.868 1.24939 70.0001 1.24939C70.1321 1.24939 70.2608 1.29122 70.3676 1.36887C70.4744 1.44652 70.5539 1.55601 70.5946 1.68163L72.4852 7.50194H78.7501C78.8836 7.50187 79.0136 7.54455 79.121 7.62372C79.2285 7.7029 79.3078 7.8144 79.3474 7.94191C79.3869 8.06943 79.3845 8.20624 79.3407 8.33232C79.2968 8.4584 79.2137 8.56712 79.1036 8.64256L74.0235 12.123L75.9817 17.925C76.0134 18.0189 76.0224 18.1191 76.0077 18.2171C75.9931 18.3152 75.9554 18.4084 75.8976 18.489C75.8399 18.5696 75.7638 18.6353 75.6757 18.6807C75.5875 18.726 75.4898 18.7498 75.3907 18.75Z" fill="#25A870"/>
<path d="M95.3907 18.75C95.2591 18.7505 95.1308 18.7095 95.0239 18.6328L90.0001 14.9906L84.9762 18.6328C84.8689 18.7106 84.7396 18.7523 84.607 18.7519C84.4744 18.7514 84.3454 18.7087 84.2387 18.6301C84.1319 18.5515 84.0529 18.441 84.0131 18.3145C83.9733 18.188 83.9748 18.0521 84.0173 17.9265L85.9766 12.123L80.8985 8.64061C80.7885 8.56526 80.7055 8.45672 80.6616 8.33083C80.6177 8.20494 80.6152 8.06831 80.6544 7.94089C80.6937 7.81348 80.7727 7.70196 80.8799 7.62264C80.987 7.54331 81.1167 7.50034 81.2501 7.49999H87.5149L89.4055 1.68163C89.4463 1.55601 89.5257 1.44652 89.6325 1.36887C89.7394 1.29122 89.868 1.24939 90.0001 1.24939C90.1321 1.24939 90.2608 1.29122 90.3676 1.36887C90.4744 1.44652 90.5539 1.55601 90.5946 1.68163L92.4852 7.50194H98.7501C98.8836 7.50187 99.0136 7.54455 99.121 7.62372C99.2285 7.7029 99.3078 7.8144 99.3474 7.94191C99.3869 8.06943 99.3845 8.20624 99.3407 8.33232C99.2968 8.4584 99.2137 8.56712 99.1036 8.64256L94.0235 12.123L95.9817 17.925C96.0134 18.0189 96.0224 18.1191 96.0077 18.2171C95.9931 18.3152 95.9554 18.4084 95.8976 18.489C95.8399 18.5696 95.7638 18.6353 95.6757 18.6807C95.5875 18.726 95.4898 18.7498 95.3907 18.75Z" fill="#25A870"/>
<path d="M55.3907 18.75C55.2591 18.7505 55.1308 18.7095 55.0239 18.6328L50.0001 14.9906L44.9762 18.6328C44.8689 18.7106 44.7396 18.7523 44.607 18.7519C44.4744 18.7514 44.3454 18.7087 44.2387 18.6301C44.1319 18.5515 44.0529 18.441 44.0131 18.3145C43.9733 18.188 43.9748 18.0521 44.0173 17.9265L45.9766 12.123L40.8985 8.64061C40.7885 8.56526 40.7055 8.45672 40.6616 8.33083C40.6177 8.20494 40.6152 8.06831 40.6544 7.94089C40.6937 7.81348 40.7727 7.70196 40.8799 7.62264C40.987 7.54331 41.1167 7.50034 41.2501 7.49999H47.5149L49.4055 1.68163C49.4463 1.55601 49.5257 1.44652 49.6325 1.36887C49.7394 1.29122 49.868 1.24939 50.0001 1.24939C50.1321 1.24939 50.2608 1.29122 50.3676 1.36887C50.4744 1.44652 50.5539 1.55601 50.5946 1.68163L52.4852 7.50194H58.7501C58.8836 7.50187 59.0136 7.54455 59.121 7.62372C59.2285 7.7029 59.3078 7.8144 59.3474 7.94191C59.3869 8.06943 59.3845 8.20624 59.3407 8.33232C59.2968 8.4584 59.2137 8.56712 59.1036 8.64256L54.0235 12.123L55.9817 17.925C56.0134 18.0189 56.0224 18.1191 56.0077 18.2171C55.9931 18.3152 55.9554 18.4084 55.8976 18.489C55.8399 18.5696 55.7638 18.6353 55.6757 18.6807C55.5875 18.726 55.4898 18.7498 55.3907 18.75Z" fill="#25A870"/>
<path d="M35.3907 18.75C35.2591 18.7505 35.1308 18.7095 35.0239 18.6328L30.0001 14.9906L24.9762 18.6328C24.8689 18.7106 24.7396 18.7523 24.607 18.7519C24.4744 18.7514 24.3454 18.7087 24.2387 18.6301C24.1319 18.5515 24.0529 18.441 24.0131 18.3145C23.9733 18.188 23.9748 18.0521 24.0173 17.9265L25.9766 12.123L20.8985 8.64061C20.7885 8.56526 20.7055 8.45672 20.6616 8.33083C20.6177 8.20494 20.6152 8.06831 20.6544 7.94089C20.6937 7.81348 20.7727 7.70196 20.8799 7.62264C20.987 7.54331 21.1167 7.50034 21.2501 7.49999H27.5149L29.4055 1.68163C29.4463 1.55601 29.5257 1.44652 29.6325 1.36887C29.7394 1.29122 29.868 1.24939 30.0001 1.24939C30.1321 1.24939 30.2608 1.29122 30.3676 1.36887C30.4744 1.44652 30.5539 1.55601 30.5946 1.68163L32.4852 7.50194H38.7501C38.8836 7.50187 39.0136 7.54455 39.121 7.62372C39.2285 7.7029 39.3078 7.8144 39.3474 7.94191C39.3869 8.06943 39.3845 8.20624 39.3407 8.33232C39.2968 8.4584 39.2137 8.56712 39.1036 8.64256L34.0235 12.123L35.9817 17.925C36.0134 18.0189 36.0224 18.1191 36.0077 18.2171C35.9931 18.3152 35.9554 18.4084 35.8976 18.489C35.8399 18.5696 35.7638 18.6353 35.6757 18.6807C35.5875 18.726 35.4898 18.7498 35.3907 18.75Z" fill="#25A870"/>
<path d="M15.3907 18.75C15.2591 18.7505 15.1308 18.7095 15.0239 18.6328L10.0001 14.9906L4.97624 18.6328C4.86891 18.7106 4.7396 18.7523 4.60701 18.7519C4.47442 18.7514 4.34542 18.7087 4.23866 18.6301C4.1319 18.5515 4.05291 18.441 4.01311 18.3145C3.9733 18.188 3.97476 18.0521 4.01725 17.9265L5.97663 12.123L0.898504 8.64061C0.788508 8.56526 0.70549 8.45672 0.661579 8.33083C0.617668 8.20494 0.615165 8.06831 0.654436 7.94089C0.693707 7.81348 0.772694 7.70196 0.879856 7.62264C0.987018 7.54331 1.11674 7.50034 1.25007 7.49999H7.51491L9.40553 1.68163C9.44626 1.55601 9.52573 1.44652 9.63254 1.36887C9.73935 1.29122 9.86801 1.24939 10.0001 1.24939C10.1321 1.24939 10.2608 1.29122 10.3676 1.36887C10.4744 1.44652 10.5539 1.55601 10.5946 1.68163L12.4852 7.50194H18.7501C18.8836 7.50187 19.0136 7.54455 19.121 7.62372C19.2285 7.7029 19.3078 7.8144 19.3474 7.94191C19.3869 8.06943 19.3845 8.20624 19.3407 8.33232C19.2968 8.4584 19.2137 8.56712 19.1036 8.64256L14.0235 12.123L15.9817 17.925C16.0134 18.0189 16.0224 18.1191 16.0077 18.2171C15.9931 18.3152 15.9554 18.4084 15.8976 18.489C15.8399 18.5696 15.7638 18.6353 15.6757 18.6807C15.5875 18.726 15.4898 18.7498 15.3907 18.75Z" fill="#25A870"/>
</svg>
