<svg width="70" height="70" viewBox="0 0 70 70" fill="none" xmlns="http://www.w3.org/2000/svg">
<path d="M4.375 61.25H21.875V65.625H4.375V61.25ZM37.1875 63.4375C36.8598 63.4373 36.5364 63.3635 36.241 63.2215C35.9457 63.0795 35.6861 62.873 35.4812 62.6172L27.3875 52.5H4.375V48.125H28.4375C28.7652 48.1252 29.0886 48.199 29.384 48.341C29.6793 48.483 29.9389 48.6895 30.1437 48.9453L37.0278 57.5466L48.4925 40.3484C48.6866 40.0574 48.9477 39.8172 49.2539 39.6479C49.56 39.4786 49.9023 39.3852 50.252 39.3756C50.6017 39.366 50.9487 39.4403 51.2637 39.5925C51.5787 39.7446 51.8526 39.9701 52.0625 40.25L57.9688 48.125H65.625V52.5H56.875C56.5354 52.5 56.2005 52.4209 55.8967 52.2691C55.593 52.1172 55.3288 51.8967 55.125 51.625L50.4175 45.3469L39.0075 62.4641C38.8166 62.7504 38.5608 62.9876 38.2609 63.1564C37.9609 63.3252 37.6254 63.4208 37.2816 63.4353L37.1875 63.4375ZM24.0625 35V24.0625H26.25C28.5698 24.0596 30.7937 23.1368 32.434 21.4965C34.0743 19.8562 34.9971 17.6323 35 15.3125V8.75H28.4375C26.1975 8.75367 24.0451 9.62103 22.4284 11.1716C21.2957 9.11481 19.6321 7.3994 17.6111 6.20403C15.5901 5.00866 13.2856 4.37705 10.9375 4.375H4.375V10.9375C4.37905 14.4172 5.76316 17.7533 8.2237 20.2138C10.6842 22.6743 14.0203 24.0584 17.5 24.0625H19.6875V35H4.375V39.375H35V35H24.0625ZM28.4375 13.125H30.625V15.3125C30.6238 16.4725 30.1625 17.5846 29.3423 18.4048C28.5221 19.225 27.41 19.6863 26.25 19.6875H24.0625V17.5C24.0637 16.34 24.525 15.2279 25.3452 14.4077C26.1654 13.5875 27.2775 13.1262 28.4375 13.125ZM17.5 19.6875C15.1802 19.6846 12.9563 18.7618 11.316 17.1215C9.6757 15.4812 8.75289 13.2573 8.75 10.9375V8.75H10.9375C13.2573 8.75289 15.4812 9.6757 17.1215 11.316C18.7618 12.9563 19.6846 15.1802 19.6875 17.5V19.6875H17.5Z" fill="#25A870"/>
</svg>
