<svg width="20" height="21" viewBox="0 0 20 21" fill="none" xmlns="http://www.w3.org/2000/svg">
<path d="M14 8C14 8.26522 13.8946 8.51957 13.7071 8.70711C13.5196 8.89464 13.2652 9 13 9C12.7348 9 12.4804 8.89464 12.2929 8.70711C12.1054 8.51957 12 8.26522 12 8C12 7.73478 12.1054 7.48043 12.2929 7.29289C12.4804 7.10536 12.7348 7 13 7C13.2652 7 13.5196 7.10536 13.7071 7.29289C13.8946 7.48043 14 7.73478 14 8ZM8 8C8 8.26522 7.89464 8.51957 7.70711 8.70711C7.51957 8.89464 7.26522 9 7 9C6.73478 9 6.48043 8.89464 6.29289 8.70711C6.10536 8.51957 6 8.26522 6 8C6 7.73478 6.10536 7.48043 6.29289 7.29289C6.48043 7.10536 6.73478 7 7 7C7.26522 7 7.51957 7.10536 7.70711 7.29289C7.89464 7.48043 8 7.73478 8 8Z" fill="#FBF8FC"/>
<path fill-rule="evenodd" clip-rule="evenodd" d="M9.99993 1.75C9.40319 1.75 8.8309 1.98705 8.40894 2.40901C7.98698 2.83097 7.74993 3.40326 7.74993 4V4.254C8.16793 4.25 8.61793 4.25 9.10493 4.25H10.8949C11.3819 4.25 11.8329 4.25 12.2499 4.254V4C12.2499 3.40326 12.0129 2.83097 11.5909 2.40901C11.169 1.98705 10.5967 1.75 9.99993 1.75ZM13.7499 4.307V4C13.7499 3.00544 13.3548 2.05161 12.6516 1.34835C11.9483 0.645088 10.9945 0.25 9.99993 0.25C9.00537 0.25 8.05154 0.645088 7.34828 1.34835C6.64502 2.05161 6.24993 3.00544 6.24993 4V4.307C6.11493 4.317 5.98493 4.328 5.85893 4.342C4.98093 4.437 4.24593 4.635 3.59393 5.082C3.36955 5.23565 3.15877 5.40828 2.96393 5.598C2.39793 6.15 2.05893 6.832 1.79393 7.674C1.53693 8.493 1.32893 9.533 1.06693 10.84L1.04793 10.935C0.671932 12.818 0.374932 14.302 0.289932 15.484C0.201932 16.692 0.323932 17.707 0.895932 18.588C1.08693 18.882 1.30993 19.153 1.55993 19.398C2.31193 20.132 3.28393 20.45 4.48493 20.602C5.66093 20.75 7.17493 20.75 9.09493 20.75H10.9049C12.8259 20.75 14.3389 20.75 15.5149 20.602C16.7159 20.45 17.6889 20.132 18.4399 19.398C18.6904 19.1533 18.9131 18.8817 19.1039 18.588C19.6759 17.708 19.7979 16.692 19.7109 15.484C19.6249 14.302 19.3289 12.818 18.9509 10.935L18.9329 10.84C18.6719 9.533 18.4629 8.493 18.2059 7.674C17.9409 6.832 17.6019 6.15 17.0359 5.598C16.8411 5.40827 16.6303 5.23564 16.4059 5.082C15.7539 4.635 15.0189 4.437 14.1409 4.342C14.0111 4.3281 13.8811 4.31643 13.7509 4.307H13.7499ZM6.01993 5.833C5.27293 5.913 4.81193 6.066 4.44193 6.319C4.28839 6.42443 4.14419 6.54287 4.01093 6.673C3.68993 6.986 3.45093 7.408 3.22493 8.124C2.99493 8.857 2.80093 9.817 2.52993 11.176C2.13993 13.124 1.86293 14.516 1.78593 15.592C1.70893 16.654 1.83793 17.285 2.15393 17.771C2.28393 17.971 2.43693 18.158 2.60793 18.325C3.02293 18.73 3.61593 18.98 4.67293 19.114C5.74293 19.249 7.16293 19.25 9.14893 19.25H10.8519C12.8379 19.25 14.2559 19.249 15.3269 19.114C16.3839 18.98 16.9769 18.73 17.3919 18.325C17.5632 18.1576 17.7155 17.9718 17.8459 17.771C18.1619 17.285 18.2909 16.654 18.2149 15.591C18.1369 14.515 17.8599 13.124 17.4709 11.176C17.1989 9.817 17.0059 8.856 16.7749 8.124C16.5499 7.408 16.3099 6.986 15.9889 6.673C15.856 6.5429 15.7121 6.42446 15.5589 6.319C15.1889 6.066 14.7269 5.914 13.9799 5.833C13.2169 5.751 12.2369 5.75 10.8509 5.75H9.14993C7.76393 5.75 6.78393 5.751 6.01993 5.833Z" fill="#FBF8FC"/>
</svg>
