<svg width="83" height="83" viewBox="0 0 83 83" fill="none" xmlns="http://www.w3.org/2000/svg">
<path d="M47.8838 28.9768H57.6512L47.8838 38.7442H57.6512M62.5349 9.44189H75.5582L62.5349 22.4651H75.5582" stroke="#25A870" stroke-width="1.5" stroke-linecap="round" stroke-linejoin="round"/>
<path d="M27.9451 68.0888C27.6677 67.928 27.3612 67.8235 27.0433 67.7812C26.7255 67.7388 26.4023 67.7595 26.0925 67.8421C25.7826 67.9246 25.492 68.0674 25.2373 68.2622C24.9825 68.4571 24.7687 68.7002 24.6079 68.9776C24.4472 69.2551 24.3426 69.5616 24.3003 69.8794C24.258 70.1973 24.2787 70.5204 24.3612 70.8303C24.4437 71.1402 24.5865 71.4308 24.7813 71.6855C24.9762 71.9402 25.2193 72.1541 25.4968 72.3148L27.9451 68.0888ZM12.6851 59.5C12.8392 59.7893 13.05 60.0446 13.3048 60.2508C13.5597 60.4569 13.8534 60.6096 14.1685 60.6998C14.4837 60.79 14.8137 60.8158 15.1391 60.7758C15.4644 60.7357 15.7783 60.6305 16.0621 60.4665C16.3459 60.3025 16.5938 60.0831 16.791 59.8212C16.9882 59.5594 17.1307 59.2605 17.2099 58.9425C17.2891 58.6244 17.3035 58.2937 17.2522 57.9699C17.2009 57.6462 17.0849 57.3361 16.9112 57.0581L12.6851 59.5ZM73.1163 42C73.1163 49.9873 69.9433 57.6475 64.2954 63.2954C58.6475 68.9433 50.9873 72.1162 43 72.1162V77C62.3298 77 78 61.3297 78 42H73.1163ZM12.8838 42C12.8838 34.0127 16.0567 26.3525 21.7046 20.7046C27.3525 15.0567 35.0127 11.8837 43 11.8837V7C23.6703 7 8.00004 22.6702 8.00004 42H12.8838ZM54.3954 49.3256C49.4303 49.3256 44.6685 47.3532 41.1577 43.8423C37.6468 40.3315 35.6744 35.5697 35.6744 30.6046H30.7907C30.7907 36.865 33.2776 42.8689 37.7044 47.2956C42.1311 51.7224 48.135 54.2093 54.3954 54.2093V49.3256ZM70.4302 40.2711C68.7652 43.0351 66.4137 45.3213 63.604 46.9079C60.7943 48.4944 57.622 49.3273 54.3954 49.3256V54.2093C58.4633 54.2114 62.4627 53.1618 66.0053 51.1623C69.548 49.1628 72.5135 46.2814 74.614 42.7977L70.4302 40.2711ZM35.6744 30.6046C35.673 27.378 36.506 24.2059 38.0925 21.3962C39.6791 18.5866 41.9652 16.235 44.7289 14.5698L42.2023 10.3893C38.7189 12.4893 35.8376 15.4542 33.8381 18.9963C31.8386 22.5383 30.7888 26.5372 30.7907 30.6046H35.6744ZM43 11.8837C42.6698 11.8759 42.3562 11.7378 42.1275 11.4995C41.9876 11.3636 41.8942 11.187 41.8605 10.9949C41.8475 10.894 41.854 10.6009 42.2023 10.3893L44.7289 14.5698C46.3665 13.58 46.894 11.7665 46.7019 10.3405C46.5 8.85907 45.3344 7 43 7V11.8837ZM74.614 42.7977C74.3991 43.146 74.106 43.1525 74.0051 43.1395C73.813 43.1058 73.6364 43.0124 73.5005 42.8725C73.2622 42.6438 73.1241 42.3302 73.1163 42H78C78 39.6656 76.1409 38.5 74.6595 38.2981C73.2335 38.106 71.42 38.6335 70.4302 40.2711L74.614 42.7977ZM43 72.1162C37.7144 72.125 32.5204 70.7355 27.9451 68.0888L25.4968 72.3148C30.8161 75.3925 36.8546 77.0088 43 77V72.1162ZM16.9112 57.0581C14.2639 52.4819 12.8744 47.2867 12.8838 42H8.00004C7.99113 48.1444 9.60749 54.1819 12.6851 59.5L16.9112 57.0581Z" fill="#25A870"/>
</svg>
