<svg width="16" height="16" viewBox="0 0 16 16" fill="none" xmlns="http://www.w3.org/2000/svg">
<g clip-path="url(#clip0_1675_3415)">
<path d="M2.66667 13.2256L3.06133 12.8672L3.05493 12.8597L3.04747 12.8523L2.66667 13.2256ZM3.73333 14.4V14.9333H4.26667V14.4H3.73333ZM7.46667 15.4475L7.48587 14.9141L7.42933 15.9808L7.46667 15.4475ZM8 8H7.46667C7.46654 8.07009 7.48023 8.13951 7.50695 8.2043C7.53368 8.26909 7.57291 8.32798 7.6224 8.3776L8 8ZM14.9333 8C14.9333 8.9105 14.754 9.81208 14.4056 10.6533C14.0571 11.4945 13.5464 12.2588 12.9026 12.9026C12.2588 13.5464 11.4945 14.0571 10.6533 14.4056C9.81208 14.754 8.9105 14.9333 8 14.9333V16C10.1217 16 12.1566 15.1571 13.6569 13.6569C15.1571 12.1566 16 10.1217 16 8H14.9333ZM8 1.06667C8.9105 1.06667 9.81208 1.246 10.6533 1.59444C11.4945 1.94287 12.2588 2.45357 12.9026 3.09739C13.5464 3.74121 14.0571 4.50554 14.4056 5.34673C14.754 6.18792 14.9333 7.0895 14.9333 8H16C16 5.87827 15.1571 3.84344 13.6569 2.34315C12.1566 0.842855 10.1217 0 8 0V1.06667ZM8 0C5.87827 0 3.84344 0.842855 2.34315 2.34315C0.842855 3.84344 0 5.87827 0 8H1.06667C1.06667 6.16117 1.79714 4.39765 3.09739 3.09739C4.39765 1.79714 6.16117 1.06667 8 1.06667V0ZM3.04747 12.8523C1.77553 11.5578 1.06401 9.8148 1.06667 8H0C0 10.1792 0.872533 12.1568 2.28587 13.5989L3.04747 12.8523ZM2.272 13.584L3.33867 14.7584L4.128 14.0416L3.06133 12.8672L2.272 13.584ZM8 14.9333C7.83452 14.9335 7.66908 14.9278 7.504 14.9163L7.42933 15.9797C7.61813 15.9936 7.808 16 8 16V14.9333ZM8.0192 14.9333L7.48587 14.9141L7.44747 15.9819L7.9808 16L8.0192 14.9333ZM7.46667 3.2V8H8.53333V3.2H7.46667ZM7.6224 8.3776L10.8224 11.5776L11.5776 10.8224L8.3776 7.6224L7.6224 8.3776ZM0 14.9333H3.73333V13.8667H0V14.9333ZM4.26667 14.4V10.6667H3.2V14.4H4.26667Z" fill="#818181"/>
</g>
<defs>
<clipPath id="clip0_1675_3415">
<rect width="16" height="16" fill="white"/>
</clipPath>
</defs>
</svg>
