<svg width="48" height="48" viewBox="0 0 48 48" fill="none" xmlns="http://www.w3.org/2000/svg">
<circle cx="24" cy="24" r="24" fill="#3B6326" fill-opacity="0.2"/>
<path d="M32.7165 18.9997C32.0749 19.2913 31.3832 19.483 30.6665 19.5747C31.3999 19.133 31.9665 18.433 32.2332 17.5913C31.5415 18.008 30.7749 18.2997 29.9665 18.4663C29.3082 17.7497 28.3832 17.333 27.3332 17.333C25.3749 17.333 23.7749 18.933 23.7749 20.908C23.7749 21.1913 23.8082 21.4663 23.8665 21.7247C20.8999 21.5747 18.2582 20.1497 16.4999 17.9913C16.1915 18.5163 16.0165 19.133 16.0165 19.783C16.0165 21.0247 16.6415 22.1247 17.6082 22.7497C17.0165 22.7497 16.4665 22.583 15.9832 22.333V22.358C15.9832 24.0913 17.2165 25.5413 18.8499 25.8663C18.3255 26.0098 17.7749 26.0298 17.2415 25.9247C17.4679 26.6351 17.9112 27.2567 18.5091 27.7021C19.107 28.1476 19.8294 28.3944 20.5749 28.408C19.3112 29.4084 17.7449 29.9491 16.1332 29.9413C15.8499 29.9413 15.5665 29.9247 15.2832 29.8913C16.8665 30.908 18.7499 31.4997 20.7665 31.4997C27.3332 31.4997 30.9415 26.0497 30.9415 21.3247C30.9415 21.1663 30.9415 21.0163 30.9332 20.858C31.6332 20.358 32.2332 19.7247 32.7165 18.9997Z" fill="#25A870"/>
</svg>
