<svg width="20" height="20" viewBox="0 0 20 20" fill="none" xmlns="http://www.w3.org/2000/svg">
<g id="basil:user-outline">
<path id="Vector" fill-rule="evenodd" clip-rule="evenodd" d="M6.45866 6.25C6.45866 5.7849 6.55027 5.32436 6.72825 4.89466C6.90624 4.46497 7.16711 4.07454 7.49599 3.74566C7.82486 3.41679 8.21529 3.15591 8.64499 2.97793C9.07468 2.79994 9.53523 2.70833 10.0003 2.70833C10.4654 2.70833 10.926 2.79994 11.3557 2.97793C11.7854 3.15591 12.1758 3.41679 12.5047 3.74566C12.8335 4.07454 13.0944 4.46497 13.2724 4.89466C13.4504 5.32436 13.542 5.7849 13.542 6.25C13.542 7.18931 13.1689 8.09014 12.5047 8.75434C11.8405 9.41853 10.9396 9.79167 10.0003 9.79167C9.06102 9.79167 8.16018 9.41853 7.49599 8.75434C6.8318 8.09014 6.45866 7.18931 6.45866 6.25ZM10.0003 3.95833C9.39254 3.95833 8.80964 4.19977 8.37987 4.62955C7.9501 5.05932 7.70866 5.64221 7.70866 6.25C7.70866 6.85779 7.9501 7.44068 8.37987 7.87045C8.80964 8.30022 9.39254 8.54167 10.0003 8.54167C10.6081 8.54167 11.191 8.30022 11.6208 7.87045C12.0506 7.44068 12.292 6.85779 12.292 6.25C12.292 5.64221 12.0506 5.05932 11.6208 4.62955C11.191 4.19977 10.6081 3.95833 10.0003 3.95833ZM6.66699 12.2917C6.16971 12.2917 5.6928 12.4892 5.34117 12.8408C4.98954 13.1925 4.79199 13.6694 4.79199 14.1667V15.1567C4.79199 15.1717 4.80283 15.185 4.81783 15.1875C8.25033 15.7475 11.7512 15.7475 15.1828 15.1875C15.1901 15.1863 15.1967 15.1825 15.2015 15.1769C15.2062 15.1712 15.2088 15.164 15.2087 15.1567V14.1667C15.2087 13.6694 15.0111 13.1925 14.6595 12.8408C14.3079 12.4892 13.8309 12.2917 13.3337 12.2917H13.0503C13.028 12.2915 13.0058 12.2949 12.9845 12.3017L12.2637 12.5375C10.793 13.0177 9.20768 13.0177 7.73699 12.5375L7.01533 12.3017C6.99459 12.295 6.97294 12.2917 6.95116 12.2917H6.66699ZM3.54199 14.1667C3.54199 13.3379 3.87123 12.543 4.45728 11.957C5.04333 11.3709 5.83819 11.0417 6.66699 11.0417H6.95033C7.10449 11.0417 7.25783 11.0667 7.40366 11.1133L8.12533 11.3492C9.34369 11.7469 10.657 11.7469 11.8753 11.3492L12.597 11.1133C12.7428 11.0658 12.8962 11.0417 13.0495 11.0417H13.3337C14.1625 11.0417 14.9573 11.3709 15.5434 11.957C16.1294 12.543 16.4587 13.3379 16.4587 14.1667V15.1567C16.4587 15.785 16.0037 16.32 15.3837 16.4208C11.8184 17.0029 8.18228 17.0029 4.61699 16.4208C4.31693 16.372 4.04403 16.218 3.84708 15.9864C3.65014 15.7548 3.542 15.4607 3.54199 15.1567V14.1667Z" fill="#30511F"/>
</g>
</svg>
