<svg width="20" height="20" viewBox="0 0 20 20" fill="none" xmlns="http://www.w3.org/2000/svg">
<path d="M10.0007 19.1666C9.77964 19.1666 9.56768 19.0788 9.4114 18.9226C9.25512 18.7663 9.16732 18.5543 9.16732 18.3333V15.8333H5.83398C5.39196 15.8333 4.96803 15.6577 4.65547 15.3452C4.34291 15.0326 4.16732 14.6087 4.16732 14.1666V5.83331C4.16732 5.39129 4.34291 4.96736 4.65547 4.6548C4.96803 4.34224 5.39196 4.16665 5.83398 4.16665H17.5007C17.9427 4.16665 18.3666 4.34224 18.6792 4.6548C18.9917 4.96736 19.1673 5.39129 19.1673 5.83331V14.1666C19.1673 14.6087 18.9917 15.0326 18.6792 15.3452C18.3666 15.6577 17.9427 15.8333 17.5007 15.8333H14.084L11.0007 18.925C10.834 19.075 10.634 19.1666 10.4173 19.1666H10.0007ZM2.50065 12.5H0.833984V2.49998C0.833984 2.05795 1.00958 1.63403 1.32214 1.32147C1.6347 1.00891 2.05862 0.833313 2.50065 0.833313H15.834V2.49998H2.50065V12.5Z" fill="#25A870"/>
</svg>
